<?xml version="1.0" encoding="UTF-8"?>
<svg id="Layer_2" data-name="Layer 2" xmlns="http://www.w3.org/2000/svg" xmlns:xlink="http://www.w3.org/1999/xlink" viewBox="0 0 158.6 94.83">
  <defs>
    <style>
      .cls-1 {
        clip-path: url(#clippath);
      }

      .cls-2 {
        fill: none;
      }

      .cls-2, .cls-3 {
        stroke-width: 0px;
      }

      .cls-3 {
        fill: #3149ad;
      }
    </style>
    <clipPath id="clippath">
      <rect class="cls-2" width="158.6" height="94.83"/>
    </clipPath>
  </defs>
  <g id="Layer_1-2" data-name="Layer 1">
    <g class="cls-1">
      <path class="cls-3" d="m66.66,89.56s-.09,0-.15,0c-.16,0-.34,0-.43-.1-.05-.06-.06-.15-.05-.28.05-.41.08-.83.1-1.23.07-1.07.14-2.19.64-3.21.13-.28.18-.59.22-.9.02-.16.05-.32.08-.47,0-.03.02-.07.03-.1.04-.11.08-.24.02-.35-.04-.07-.13-.12-.24-.15-.04,0-.07-.01-.1-.01-.25,0-.27.21-.29.34,0,.05,0,.09-.02.13-.22.79-.44,1.58-.68,2.41l-.19.69c-.27-.45-.38-.9-.49-1.34-.07-.26-.13-.51-.22-.75-.05-.11-.05-.29-.07-.45-.02-.35-.05-.74-.39-.74-.04,0-.08.01-.12.02-.15.04-.25.11-.3.23-.13.24.02.59.15.91.05.1.08.19.11.27.06.2.1.4.14.62.12.62.24,1.26.82,1.7-1.45-.02-2.18-.28-2.64-.9-.81-1.1-.63-2.74.43-3.84.64-.66,1.41-1,2.28-1,.28,0,.58.04.89.11,1.04.25,1.6.78,1.66,1.59.1,1.52-.28,2.63-1.16,3.4-.27.23-.31.51-.12.78.08.11.18.18.29.18.14,0,.28-.1.43-.31.64-.91,1.04-1.93,1.21-3.13.21-1.46-.37-2.49-1.69-2.98-.47-.18-.97-.27-1.46-.27-1.17,0-2.24.51-2.95,1.38-.97,1.2-1.22,2.45-.76,3.73.38,1.02,1.19,1.65,2.36,1.81.13.02.27.02.38.02h.32c.34,0,.59.03.68.19.15.23.12.59.09.96-.02.2-.03.42-.02.61.01.15-.01.24-.06.3-.04.04-.11.06-.21.06-.02,0-.04,0-.06,0-.06,0-.11,0-.17,0-.34,0-.58.09-.73.26-.23.26-.24.65-.19,1.16.04.42.09.86.19,1.29.13.52.44.77.97.77h.08c1.51-.07,1.83-.39,1.96-1.89,0-.06,0-.11.01-.18,0-.15.01-.28.06-.39.11-.29.13-.49.04-.64-.12-.19-.41-.24-.65-.27Zm-.37,2.43c-.15.16-.4.22-.85.22h-.05c-.35,0-.82-.19-.83-1.71,0-.16.03-.27.08-.32.04-.04.11-.06.23-.06h.13c.05,0,.1,0,.16,0h.03c.13.06.28.07.42.07h.17c.06,0,.11,0,.17,0,.38,0,.59.08.59.51.02.71-.06,1.09-.24,1.28ZM20.92,24.57c.34,0,.69-.04,1.02-.07.22-.03.43-.04.65-.06.58-.03,1.13-.17,1.23-.97.03-.23.06-.28.17-.28.02,0,.04,0,.07,0,.04.01.08.02.1.05.03.04.01.12,0,.19v.05c-.15.85.43.95.94,1.04l.2.04h.03c.35-.17.71-.18,1.1-.19.33-.01.68-.02,1.02-.13.62-.19,1.26-.47,1.25-1.15,0-.58-.54-.67-.96-.74-.11-.02-.22-.04-.32-.07-.06-.02-.11-.03-.17-.04-.21-.05-.35-.08-.48-.35-.33-.73-1.39-1.05-2.3-1.05s-1.67.32-1.94.86c-.28.55-.55.55-.97.55h-.18c-.07,0-.15,0-.22,0-.07,0-.15,0-.22,0-.12,0-.22,0-.31.03-.71.12-1.05.52-1.01,1.22.03.66.39,1.02,1.07,1.06.08,0,.16,0,.25,0Zm-.57-1.51c.05-.05.11-.08.21-.08.04,0,.07,0,.1.01.07,0,.14.01.21.01.2,0,.41-.04.62-.08.2-.04.39-.07.58-.07.29,0,.52.09.73.29.06.06.15.06.22.06.04,0,.1,0,.11.02,0,0,.02.03,0,.13-.06.29-.13.44-.36.46-.16.01-.32.02-.47.02-.13,0-.24,0-.36,0h-.37l-.09.03c-.06,0-.11,0-.17,0-.09,0-.19,0-.28,0-.13,0-.24,0-.34.02-.04,0-.08.01-.11.01-.23,0-.31-.12-.32-.48,0-.1.02-.24.09-.32Zm7.68.09c.04.18-.16.29-.27.33-.73.25-1.51.33-2.25.39-.05-.02-.11-.03-.18-.03-.06,0-.12,0-.18.02-.05,0-.1.01-.16.01-.11,0-.19-.02-.19-.22,0-.15.03-.27.1-.34.1-.1.27-.13.39-.13.08,0,.17.01.26.03.07.02.15.02.21.02.27,0,.52-.09.77-.18.24-.09.46-.17.7-.17.15,0,.3.04.43.1.06.03.12.05.18.06.13.04.19.06.2.11Zm-1.97-1.24c.03.05.03.08.03.08-.12.09-.15.24-.18.38-.05.2-.08.28-.22.28-.03,0-.07,0-.11-.02-.09-.02-.18-.03-.27-.03-.05,0-.09,0-.14,0-.11,0-.22.01-.33.01-.1,0-.21.01-.32.01h-1.14c-.25,0-.37-.09-.41-.29-.04-.22.1-.33.22-.39.57-.26,1.17-.4,1.77-.4.23,0,.47.02.7.06.16.02.34.17.41.29Zm3.36,26.35c.01-1.39-.07-2.79-.14-4.14-.07-1.27-.15-2.58-.14-3.88,0-.81-.02-1.63-.04-2.42-.03-1.21-.06-2.45-.02-3.68.01-.34-.04-.55-.18-.69-.12-.13-.3-.18-.57-.18-.05,0-.1,0-.16,0-.88.06-1.77.09-2.64.13-.48.02-.97.03-1.45.06-.47.02-.94.05-1.4.07-.66.04-1.32.07-1.99.1-.3.02-.57.09-.57.55,0,.96-.02,1.93-.02,2.9-.02,1.71-.03,3.48-.02,5.22,0,.55.01,1.11.02,1.66.03,1.6.06,3.25-.08,4.87-.02.24,0,.39.09.47.08.09.19.1.29.1.04,0,.08,0,.12,0h.05c.66-.03,1.31-.07,1.96-.1,1.3-.07,2.64-.15,3.95-.16.3,0,.59-.06.88-.13s.58-.13.87-.13c.35,0,.65.09.92.3l.08.06.06-.09c.15-.23.14-.48.12-.7-.01-.07-.02-.14-.01-.2Zm-8.27.41c-.06,0-.13.01-.19.01-.09,0-.16-.02-.19-.05-.04-.05-.05-.15-.03-.29.2-1.45.11-2.91.02-4.33-.06-.84-.11-1.7-.1-2.56,0-.58.18-.78.73-.78v-.09.09s.79,0,.79,0c.39,0,.85,0,1.32-.04h.11c.15,0,.24.03.29.08.06.06.09.19.08.39-.02.45-.01.92,0,1.36,0,.49.02,1.01-.01,1.52-.04.71.03,1.42.09,2.1.05.54.1,1.1.1,1.65,0,.05-.02.1-.02.16-.03.17-.07.35.04.48.06.07.16.11.29.11.02,0,.05,0,.07,0,.13-.01.23-.06.29-.14.13-.17.08-.41.04-.6l-.02-.09c-.17-1.04-.16-2.11-.16-3.15,0-.4,0-.8,0-1.2,0-.25-.03-.53-.05-.79-.06-.67-.14-1.37.15-1.81.15-.24.4-.34.83-.34.17,0,.35.02.54.03.19.02.4.03.59.03s.35-.02.49-.05c.24-.06.43-.08.58-.08.51,0,.67.27.71,1.19.02.45.06.9.09,1.34.07.83.14,1.61.07,2.3v.91c0,.63-.01,1.18.01,1.73,0,.3-.05.35-.39.42-1.45.26-2.94.31-4.39.35-.9.03-1.82.06-2.72.14h-.05Zm7.35-10.18c0,.39-.01.79-.01,1.18-.24-.05-.49-.07-.76-.07-.4,0-.79.05-1.18.09-.38.04-.77.09-1.15.09-.06,0-.13,0-.19,0-.46-.02-.54-.04-.53-.46.03-1,.03-2.02.02-3v-.84c0-.06,0-.13,0-.19,0-.24.01-.49-.07-.71-.08-.21-.07-.3-.05-.33.04-.07.21-.08.36-.09.29-.01.58-.04.87-.07.28-.04.57-.07.86-.08.25,0,.47-.01.65-.01,1.04,0,1.07.14,1.16,1.6.05.96.04,1.94.03,2.89Zm-7.65-3.82v-.07c0-.18.01-.24.2-.25.85-.04,1.69-.1,2.51-.17.04,0,.07-.01.1-.01.24,0,.3.08.32.45.08,1.15.05,2.31.03,3.43-.01.47-.03.95-.03,1.43,0,.35-.07.45-.33.45h-.1c-.15-.02-.3-.02-.45-.02-.19,0-.39.01-.58.02h-.1c-.2,0-.43.06-.64.11-.23.05-.44.1-.63.1-.17,0-.29-.05-.38-.15-.19-.23-.16-.68-.13-1.08.01-.18.02-.34.02-.47l.06-1.04c.04-.95.08-1.84.13-2.74Zm51.96,38.78c.17,0,.39-.03.7-.07h.04c.19-.03.39-.04.58-.04.18,0,.35.01.52.03.07.01.14.02.19.02.2,0,.35-.05.46-.17.13-.13.18-.32.17-.61l-.02-.41c-.02-.57-.04-1.17-.03-1.75.01-.25-.04-.41-.14-.51-.07-.08-.17-.11-.3-.11-.08,0-.18.02-.31.05-.09.03-.18.05-.27.07-.35.1-.72.2-1.1.2-.33,0-.64-.08-.94-.23l-.15-.07v2.38c0,.9,0,1.23.58,1.23Zm.86-2.72s.07,0,.1,0c.03,0,.06,0,.09.01.03,0,.05,0,.08,0,.16,0,.32-.07.45-.13.11-.05.21-.09.29-.09.03,0,.06.01.08.04.12.17.11.46.11.73,0,.1,0,.2,0,.29h-.02v.09c0,.08,0,.16,0,.23,0,.18,0,.37,0,.55.02.14,0,.24-.05.29-.04.04-.09.06-.18.06-.03,0-.06,0-.1-.01-.05,0-.09,0-.14,0-.04,0-.22,0-.22,0h-.27q-1.09,0-1.11-1.32v-.08c0-.31.04-.5.13-.59.07-.07.16-.1.3-.1.06,0,.14,0,.21.02.04,0,.08.01.12.01.05,0,.09,0,.13,0Zm72.75-4.48c-.31-.54-.72-.82-1.21-.82-.28,0-.58.09-.89.28-1.04.62-1.58,1.56-1.62,2.79-.03.89-.02,1.81-.02,2.69,0,.39,0,.77,0,1.15v1.05c0,.96,0,1.92,0,2.88,0,.31.06.53.19.66.09.09.2.14.35.14.07,0,.15-.01.23-.03.58-.15,1.17-.17,1.61-.17.22,0,.44,0,.66.01s.44.01.66.01h.07c.61,0,.66-.35.66-.74,0-3.04-.04-5.6-.2-8.2-.04-.62-.2-1.18-.49-1.68Zm-.57,9.92l-.21-.02c-.28-.03-.57-.06-.85-.06-.37,0-.67.05-.96.15-.1.04-.18.05-.24.05s-.09-.02-.1-.03c-.05-.05-.07-.17-.07-.36l.02-.81c.02-1.17.03-2.38-.03-3.56-.01-.18-.02-.34-.03-.52-.06-.97-.12-1.89.04-2.84.14-.8.55-1.42,1.29-1.96.18-.13.34-.19.49-.19.33,0,.55.31.68.56.3.6.45,1.3.48,2.21.03.61.02,1.22.02,1.93,0,.34,0,.7,0,1.09-.01.99-.02,2.34.16,3.69.03.26,0,.43-.08.53-.08.08-.21.13-.42.13-.05,0-.11,0-.17-.01Zm12.27-22.45c.04-.73-.34-1.09-.72-1.34-1.26-.84-2.52-1.68-3.78-2.53-3.53-2.36-7.18-4.81-10.81-7.15-.38-.24-.76-.51-1.13-.76-1.51-1.05-3.06-2.14-5.16-2.14h-.66c-1.29,0-2.68-.04-4.25-.12-.26-.02-.53-.02-.8-.02s-.56,0-.84.01c-.29,0-.57.01-.85.01-.36,0-.66-.01-.95-.03-.21-.02-.35-.08-.44-.18-.09-.13-.07-.32-.03-.46.18-.7.16-1.41.14-2.1-.01-.24-.02-.47-.02-.71.02-6.11.02-12.23.03-18.34,0-3.29,0-6.58.01-9.87,0-.11,0-.22-.01-.34-.02-.27-.03-.51.04-.76.1-.32.08-.58-.05-.76-.14-.19-.39-.28-.74-.29h-.18c-.1,0-.53.01-.63.01-.25,0-.54-.01-.83-.05-1.71-.27-3.45-.39-5.14-.51-.63-.05-1.26-.09-1.88-.14-.97-.08-1.96-.14-2.91-.19-.98-.06-2-.11-3-.2-1.93-.16-3.89-.34-5.79-.52-1.19-.1-2.37-.22-3.56-.32-.89-.08-1.78-.15-2.67-.22-1.25-.1-2.54-.21-3.81-.33-1.44-.14-2.88-.29-4.31-.44-1.9-.19-3.86-.4-5.79-.57-3.76-.34-7.56-.62-10.92-.88-.7-.05-1.41-.1-2.1-.16-2.58-.2-5.25-.41-7.88-.53-.97-.04-1.95-.09-2.92-.13-2.7-.13-5.49-.26-8.25-.29-1.59-.02-3.2-.14-4.43-.25-.15-.01-.29-.03-.44-.04-.37-.04-.76-.08-1.15-.08-.63,0-1.15.1-1.65.33-5.89,2.68-11.81,5.55-17.53,8.33l-2.03.98c-2.67,1.3-5.34,2.6-8.02,3.9-3.94,1.92-7.88,3.84-11.83,5.75-.26.13-.34.32-.31.46.02.1.11.18.22.18.2,0,.33.05.41.14.1.12.08.32.06.51-.01.08-.02.16-.02.23.05,4.8.03,8.77-.06,12.49-.09,3.54-.09,6.8-.02,9.97.03,1.17.07,2.33.1,3.49.1,3.23.21,6.58.11,9.86-.07,2.36-.07,4.76-.07,7.08,0,1.31,0,2.62-.01,3.93v.02c-1.54-1.52-3.56-2.24-6.35-2.28h-.11c-.06,0-.12,0-.19,0-.29,0-.61.03-.84.26-.17.18-.26.44-.25.79.03,2.28.03,4.59.02,6.83,0,3.72,0,7.57.17,11.34.07,1.61.07,3.26.07,4.84,0,.74,0,1.48.01,2.22,0,.74.3,1.15.84,1.15.12,0,.25-.02.39-.06.43-.13.86-.14,1.29-.15.21-.01.44-.02.66-.04,1.3-.13,2.69-.19,4.49-.19.77,0,1.54.01,2.31.02.44.01.89.02,1.32.03.9.02,1.83.03,2.74.03,1.47,0,2.67-.05,3.79-.14.26-.03.52-.05.78-.08.62-.06,1.27-.13,1.89-.13s1.1.06,1.57.18c1.33.36,2.7.65,4.02.92.99.21,2.03.42,3.03.67.23.06.38.08.49.08.13,0,.22-.04.28-.11.1-.14.07-.35-.03-.69-.13-.43-.14-.66-.05-.79.08-.1.28-.16.64-.16.05,0,.1,0,.16,0h.3c.44,0,.87-.03,1.29-.05.42-.03.85-.05,1.27-.05,0,0,.49,0,.69,0,2.26,0,4.55-.13,6.77-.25h.23c.24-.03.48-.03.72-.03.15,0,.31,0,.46,0,.15,0,.31,0,.46,0,.53,0,1.1-.02,1.68-.14.41-.09.81-.21,1.21-.34.33-.1.68-.22,1.02-.3.58-.14,1.14-.37,1.68-.59.58-.24,1.18-.48,1.79-.61.16-.03.32-.05.47-.08.72-.1,1.48-.11,2.22-.12.34,0,.7-.01,1.04-.03l-.02.08.04-.02-.08.4c-.06.33-.13.67-.19,1.02-.14.74.05,1.27.56,1.56.37.21.77.32,1.19.32.47,0,.98-.13,1.55-.4.66-.32.9-.91.75-1.8-.02-.12-.02-.24-.02-.38,0-.14,0-.27-.02-.41-.04-.21-.02-.35.04-.43.09-.1.28-.14.58-.16.59-.04,1.19-.06,1.78-.08,1.16-.04,2.35-.08,3.53-.24.04-.01.07-.01.11-.02.2-.02.51-.05.51-.39,0-.16-.08-.35-.4-.35-.06,0-.12,0-.18.02h-.08c-1.85.13-3.7.26-5.55.39-.29.02-.48.11-.7.34-.21.22-.54.35-.88.35-.15,0-.28-.02-.4-.07-.18-.07-.16-.26-.1-.55.02-.1.04-.2.04-.3,0-.18.03-.35.07-.54.03-.16.06-.32.07-.48.02-.24.03-.48.05-.73.12-1.86.24-3.79.98-5.59.24-.58.39-1.21.53-1.82.05-.23.1-.45.16-.67v-.05c.05-.13.09-.3.01-.43-.04-.07-.11-.13-.22-.15-.06-.02-.11-.03-.15-.03-.26,0-.29.22-.32.39,0,.04-.01.08-.02.12-.39,1.65-.91,3.28-1.42,4.81-.06-.05-.08-.1-.11-.19l-.03-.07c-.13-.32-.27-.65-.41-.97-.42-1-.85-2.04-1.15-3.1-.04-.16-.11-.42-.4-.42-.1,0-.19.05-.24.13-.07.09-.08.21-.06.32.41,1.53,1.06,2.98,1.7,4.39l.08.18c.05.1.17.17.27.19.34.09.45.31.37.76-.18,1.04-.3,2.15-.37,3.38v.19c-.04.82-.11,1.33-.85,1.33-.09,0-.19-.01-.32-.03l.05-.26-.06.07c0-.1-.03-.18-.08-.24-.08-.1-.2-.15-.36-.15-.14,0-.29.04-.43.07-.54.13-1.1.14-1.64.14-.58,0-1.17.01-1.74.16-.11.03-.2.05-.28.05-.11,0-.18-.03-.23-.08-.09-.09-.13-.27-.13-.58.04-3.69-.08-7.31-.28-11.6-.16-3.58-.32-7.76-.24-11.88,0-.38.13-.64.41-.89.86-.78,1.9-1.35,2.8-1.82,5.93-3.11,11.16-4.82,16.45-5.35,2.85-.29,5.16-.42,7.27-.42h.1c3.57,0,6.68.33,9.54.98,3.51.8,7.56,1.96,11.08,4.42.67.47,1.33,1,1.96,1.51.59.47,1.2.96,1.82,1.41.47.34.66.7.67,1.29.01.81.01,1.63.02,2.44,0,1.81,0,3.67.09,5.51.05,1.05.09,2.13.13,3.16.04,1.34.09,2.72.17,4.08.03.51.07,1.02.1,1.52.11,1.57.22,3.18.18,4.78-.26-.07-.53-.1-.83-.1-.42,0-.83.07-1.23.13-.23.04-.47.08-.7.1-.08.01-.16.02-.23.02-.65,0-.78-.33-.81-1.02-.04-.67-.08-1.34-.13-1.99-.08-1.08-.17-2.2-.18-3.3-.05-3.82-.22-6.92-.53-9.74-.09-.84-.38-1.13-1.14-1.13h-.12c-2.35.08-4.74.13-7.19.18-.33.01-.56.08-.7.23-.15.15-.21.38-.2.7.02.64.06,1.29.1,1.91.05.92.11,1.86.1,2.8-.03,2.46.13,4.89.31,7.15.09,1.21.15,2.42.19,3.56,0,.05.02.09.03.15.02.06.05.15.03.17,0,0-.03.03-.15.03,0,0-.13,0-.18,0-.24,0-.49.03-.74.05-.17.01-.34.03-.51.03-1.17.06-2.36.06-3.52.06-1.4,0-2.83,0-4.26.1-2.35.16-4.75.22-7.07.29-1.26.04-2.53.07-3.79.11-.45.02-.91.09-1.35.16-.21.03-.41.06-.62.09l-.11.02.03.1c.07.32.24.36.4.36.59,0,1.19-.04,1.77-.07.43-.02.85-.05,1.28-.06,2.44-.07,4.91-.18,7.31-.27.91-.04,1.81-.08,2.71-.11,1.68-.06,3.39-.08,5.04-.1,1.09-.01,2.22-.02,3.34-.05.38,0,.73-.03.95-.28.16-.18.22-.46.18-.84-.31-3.08-.51-6.4-.6-10.17-.01-.4-.01-.81-.02-1.22-.01-1.26-.02-2.57-.25-3.84-.03-.12-.02-.2.02-.24.04-.06.15-.08.32-.1,1.23-.14,2.48-.14,3.7-.15,1.15,0,2.34-.01,3.51-.13.03,0,.06,0,.09,0,.32,0,.46.2.51.71.24,2.82.4,5.83.51,9.48.07,2.56.18,4.52.35,6.35.05.54.25.73.78.76.14,0,.29,0,.43,0,1.04,0,2.08-.13,3.06-.27.06,0,.11-.01.16-.01q.11,0,.13.19c.02.46.05.93.08,1.4.08,1.2.16,2.44.08,3.65-.03.44.04.72.2.9.2.21.53.23.93.23,1.22,0,2.46-.09,3.66-.18.48-.04.97-.07,1.45-.1,2.58-.16,5.22-.22,7.77-.28,1.36-.04,2.72-.07,4.09-.11.37-.01.74-.02,1.11-.02s.73,0,1.09,0c.36,0,.72.01,1.09.01.73,0,1.7-.02,2.66-.13h.07c.14-.03.28-.05.4-.05.29,0,.61.06.69.82l.04.36.15-.33c.28-.62.43-.9.96-.9.43,0,.86,0,1.29,0,3.31,0,6.67-.14,9.92-.28l.48-.02c1.85-.08,3.74-.12,5.57-.16.9-.02,1.81-.04,2.71-.06.2-.01.4-.03.6-.04.09,0,.19-.02.28-.02.62-.05,1.23-.1,1.85-.14,1.44-.11,2.93-.23,4.39-.3,1.29-.06,1.5-.17,1.51-1.55,0-2.18,0-4.35,0-6.53-.01-5.62-.03-11.43.2-17.14.19-4.74.44-9.45.69-13.83Zm-1.52,28.56c.02,1.51.04,3.07.04,4.61,0,.78-.03,1.57-.05,2.34-.03.83-.05,1.69-.05,2.54,0,.24-.01.24-.23.26,0,0-.95.08-1.4.11-2.42.2-4.92.41-7.4.43-2.55.02-5.14.17-7.63.32l-.31.02s-.09,0-.13,0c-.54,0-.72-.21-.73-.83-.03-1.69-.08-3.4-.14-5.06l-.04-.96c-.07-2.23-.09-4.51-.11-6.71-.03-2.35-.05-4.78-.14-7.17-.12-3.44-.11-6.94-.11-10.32,0-1.97.01-4.02-.01-6.02v-.63c.01-.23.02-.49-.13-.63-.06-.06-.14-.09-.24-.09-.11,0-.2.04-.26.1-.13.14-.1.36-.08.56,0,.06.01.11.01.16.14,4.01.13,8.08.13,12.03,0,2.13,0,4.33.02,6.51,0,.77.02,1.54.02,2.31.02,3.14.04,6.39.21,9.57.05.85.05,1.71.05,2.55,0,1.51,0,3.05.27,4.57-1.84.22-3.66.23-5.43.23-.42,0-.84,0-1.29,0-.21,0-.33-.03-.39-.09s-.08-.18-.07-.38c.03-.48.02-.98.01-1.46,0-.33,0-.66,0-.98.05-2.65-.08-5.34-.21-7.94-.07-1.49-.15-3.03-.19-4.54-.05-1.96-.13-4.05-.25-6.54-.16-3.45-2.72-6.03-6.24-6.26-.22-.02-.45-.03-.67-.03-1.79,0-3.54.46-5.67,1.48-1.07.51-1.77,1.42-2.33,2.24-.21.31-.21.65-.21.99v.07c0,1.84.04,3.84.14,6.11.07,1.51.09,3.04.11,4.53.03,1.46.05,2.98.11,4.47.09,2.28.26,4.77.53,7.82.04.38-.02.63-.15.78-.14.15-.38.22-.79.22h-.28c-2.24,0-4.32.06-6.35.19-.94.06-1.91.08-2.84.1-.71.02-1.42.04-2.13.07h-.12c-.32,0-.44-.07-.46-.5-.12-1.61-.19-3.26-.25-4.84-.07-1.75-.15-3.56-.29-5.34-.29-3.61-.38-7.29-.46-10.85-.05-2.19-.1-4.44-.2-6.67-.03-.51-.25-.81-.61-1.15-4.18-3.92-9.24-6.42-15.47-7.66-2.41-.47-4.96-.8-7.57-.97-1.43-.09-3.32-.19-5.23-.19-1.03,0-1.97.03-2.9.09-6.51.42-14.09,1.42-20.88,5.63-1.77,1.1-3.77,2.48-5.26,4.42-.2.27-.39.57-.39,1,0,1.02-.01,2.05-.02,3.05-.02,2.07-.04,4.21.09,6.31.26,4.07.29,8.21.31,12.22l.02,1.82c0,.55-.1.67-.65.7-.44.04-.89.07-1.33.1-1.16.1-2.35.2-3.53.2-.09,0-.52,0-.64,0-1.03,0-2.07.05-3.08.1-1.01.05-2.05.1-3.07.1-.3,0-.59,0-.89-.01-.49-.02-.61-.07-.6-.56.01-1.4.01-2.79.01-4.19,0-2.83,0-5.77.09-8.65.08-2.93.08-5.9.07-8.78,0-1.45,0-2.9,0-4.34,0-.29-.05-.47-.17-.58-.1-.1-.24-.15-.45-.15-.07,0-.15,0-.24.02-3.36.43-5.95,1.88-7.9,4.43-.86-2.92-2.86-4.47-5.8-4.47-.34,0-.68.02-1.04.06-2.95.33-4.84,1.96-5.46,4.73-.04-.04-.07-.07-.11-.1-.31-.26-.52-.42-.22-.9.13-.2-.07-.33-.2-.42-.22-.14-.36-.25-.26-.53.18-.45.17-.97.16-1.48,0-.13,0-.24,0-.36,0-1.58.01-3.17.03-4.75.03-3.77.06-7.68-.05-11.51-.16-5.58-.15-11.27-.14-16.76,0-3.87.01-7.88-.04-11.82,0-.61.16-.8.65-1.05,8.38-4.19,16.75-8.24,26.05-12.72,2.26-1.09,4.57-2.16,6.81-3.2,1.77-.82,3.6-1.68,5.4-2.53.18-.08.32-.13.45-.13.18,0,.36.08.59.2,1.49.83,3.13,1.38,4.7,1.92l.73.25c9.85,3.39,19.73,7.2,29.29,10.88,4.3,1.66,8.76,3.38,13.15,5.03,1.23.46,2.51.85,3.76,1.22l.66.2c.33.1.43.15.47.5.24,2.11.55,4.25.84,6.27.18,1.25.37,2.5.56,3.75.21,1.43.43,2.85.64,4.28.07.52.12,1.05.16,1.57.08.96.17,1.96.44,2.9.35,1.2.32,2.43.28,3.62-.02.66-.04,1.33.01,2.01.38,5.41.42,10.92.46,16.26.02,2.53.04,5.15.09,7.73.07,3.01.26,6.06.44,9.02l.07,1.08c.08,1.27.19,2.56.29,3.8.19,2.28.4,4.63.41,6.96,0,.33.04.67.07.98.06.66.13,1.34-.06,2.01-.04.14-.02.28.06.39.08.11.19.17.35.17.28,0,.32-.27.35-.43v-.03c.2-1.02.09-2.06,0-3.05-.05-.43-.09-.88-.11-1.31-.14-3.34-.4-6.73-.66-9.91-.5-6.2-.71-12.93-.67-21.18.01-2.56-.08-5.16-.16-7.67-.03-.82-.06-1.65-.08-2.47-.05-1.72-.08-3.47-.1-5.16l-.02-1.11c0-.36-.01-.67.06-.74.01,0,.02-.02.06-.02.13,0,.36.09.64.2,4.24,1.66,8.36,3.41,12.19,5.05,2.02.86,4.07,1.73,6.07,2.56,3.09,1.3,6.3,2.63,9.41,4.02.41.18.82.39,1.21.59.93.47,1.89.95,2.9,1.17.47.09.97.14,1.58.14.51,0,1.03-.03,1.53-.06.42-.03.86-.05,1.28-.06.85-.02,1.7-.03,2.55-.04,2.2-.03,4.48-.05,6.71-.17.49-.03.99-.05,1.48-.07,1.54-.06,3.13-.13,4.68-.39.08-.02.15-.03.22-.03.08,0,.13.01.15.04.04.04.04.14.01.27-.23,1.04-.24,2.1-.25,3.14,0,.41-.01.81-.03,1.21l-.13,2.89c-.2,4.66-.41,9.47-.52,14.2-.03,2.32,0,4.67.03,6.93Zm-28.67,8.99c-.04-1.25-.08-2.71-.03-4.16.05-1.16-.04-2.32-.12-3.45-.05-.63-.09-1.28-.12-1.91-.01-.26.02-.4.09-.46.05-.06.15-.09.29-.09.04,0,.07,0,.11,0,.06,0,.13,0,.19,0,.18,0,.37-.02.56-.03.18-.02.35-.03.52-.03.26,0,.44.04.57.12.23.15.19.52.15.91-.03.26-.06.53-.02.76.18,1.04.16,2.11.14,3.15-.02.71-.04,1.44.02,2.16v1.23c0,1.06,0,2.15.01,3.23.01.37-.1.42-.45.44-.27.02-.49.05-.69.06-.32.04-.56.05-.74.05-.19,0-.29-.03-.34-.08-.11-.11-.11-.42-.11-.91,0-.27,0-.59-.01-.99Zm-2.35-12.23c0-.14-.01-.27-.01-.41-.02-.61-.05-1.23-.09-1.84-.07-1.1-.13-2.25-.1-3.38.02-.44.05-.58.34-.58.04,0,.09,0,.14.01.09.01.18.01.27.01.31,0,.48,0,.49.49.06,2.4.21,4.8.34,6.61.02.23-.02.38-.09.46-.08.08-.23.1-.43.1-.05,0-.25,0-.3,0-.23,0-.43,0-.53-.11-.07-.08-.09-.23-.06-.45.05-.3.04-.61.03-.92Zm-8.87,12.56c-.2-2.59-.33-5.23-.47-7.79-.04-.7-.07-1.4-.1-2.09,0-.05,0-.09,0-.14.01-.06.02-.13.03-.19.16.17.36.24.63.24.16,0,.31-.03.46-.05.11-.02.23-.04.33-.05h.12c.51,0,.64.15.66.78.12,2.9.28,5.84.43,8.68l.11,2.08c0,.11.04.21.08.31,0,.01,0,.02.01.03-.04.01-.08.02-.12.02-.21,0-.43.03-.64.05s-.43.04-.63.04c-.29,0-.49-.04-.64-.14-.31-.19-.28-.69-.26-1.18,0-.19.02-.41,0-.59Zm10.45-24.1c0-.22,0-.45,0-.68.7.24,1.38.89,1.89,1.79.62,1.1.87,2.35.63,3.18-.08.29-.24.4-.55.4-.16,0-.34-.03-.53-.06-.19-.04-.4-.07-.59-.07-.11,0-.21.01-.31.03-.06.02-.12.03-.18.03-.07,0-.23,0-.23-.35,0-.46-.04-.94-.07-1.39-.03-.37-.05-.75-.06-1.13-.02-.58-.01-1.15,0-1.76Zm-3.15,12.49c-.04-.23-.03-.46-.02-.71,0-.11.01-.21.01-.33-.13-1.15-.15-2.33-.17-3.47,0-.68-.02-1.39-.05-2.08-.01-.18.01-.3.06-.35.06-.06.18-.07.33-.07h.11s.08-.01.08-.01c.06,0,.12,0,.18,0,.11,0,.18.02.23.06.05.05.08.17.08.33-.03,1.95-.02,4.27.2,6.62.05.57-.22.61-.65.66h-.09s-.07.02-.1.02c-.09,0-.15-.02-.18-.05-.05-.06-.04-.2-.02-.32.01-.09.02-.19,0-.27Zm.66-13.65s.01.05.01.08v.04c.02,1.73.05,3.52.11,5.28,0,.2,0,.38-.07.46-.04.04-.11.06-.22.06-.04,0-.08,0-.13-.01-.05,0-.1,0-.16,0h-.19c-.13,0-.23-.01-.29-.07-.06-.06-.09-.18-.09-.36.02-1.84,0-3.84-.03-6.1,0-.14.02-.19.04-.2,0,0,.02-.02.07-.02.04,0,.08.01.12.02l.11.02c.38.07.76.14,1.13.24-.46.15-.43.42-.41.58Zm1.8,5.7c-.09.09-.23.15-.43.15-.07,0-.14-.01-.22-.02-.02,0-.05,0-.07,0-.08,0-.17.02-.26.03-.02,0-.04,0-.05.01-.08-.86-.06-1.75-.04-2.61.03-1.23.06-2.51-.19-3.76v-.04c1.23.38,1.23.42,1.29,1.74.02.52.03,1.06.04,1.57.02.71.03,1.45.08,2.17.02.39-.02.63-.15.76Zm-5.12-3.96c0,1.18,0,2.4.15,3.6.03.27.01.42-.06.5-.07.08-.19.11-.38.11h-.09c-.29-.02-.48-.03-.57-.14-.07-.08-.1-.22-.08-.45.04-.61.03-1.23.03-1.83,0-.27-.01-.52-.01-.79l-.02-.1c0-.22,0-.44,0-.67.01-.58.02-1.18-.02-1.77-.02-.24.02-.41.11-.52.13-.15.35-.19.68-.21h.06c.08,0,.18,0,.22.06.06.06.02.21-.02.33-.02.08-.04.16-.04.23.02.55.02,1.1.02,1.64Zm-.91,4.95c.1-.01.23-.02.34-.04.1-.02.19-.03.26-.03.32,0,.49.12.51.73.03,1.34.1,2.71.18,4.02.04.78.09,1.55.12,2.33,0,.07.02.15.03.22.03.17.05.34-.03.43-.06.08-.2.13-.42.14h-.08c-.59,0-.66-.24-.68-.82-.05-1.71-.12-3.46-.19-5.15-.03-.61-.05-1.23-.07-1.84h.04Zm2.54-4.7c.03,1.08.06,2.19.11,3.29.03.53-.07.64-.58.66-.03,0-.05,0-.08,0-.16,0-.26-.03-.32-.09-.07-.08-.06-.22-.05-.38,0-.07.01-.15.01-.22-.01-.35-.01-.71-.01-1.13,0-.2,0-.41,0-.63.07-.67,0-1.39-.08-2.14-.05-.52-.1-1.05-.11-1.58-.01-.58.29-.6.71-.64h.08s.05-.01.07-.01c.06,0,.15.01.18.05.05.06.03.19.01.31-.01.08-.02.15-.02.21.03.76.05,1.51.07,2.27Zm-.83,4.72c.06-.06.17-.1.34-.1h.06c.42.02.55.03.57.49.04,1.58.12,3.14.19,4.66.03.55.05,1.09.08,1.63.07.42.1.7-.02.84-.07.08-.2.12-.41.12-.04,0-.07,0-.11,0-.41-.03-.42-.1-.42-.44-.03-2.25-.14-4.5-.34-6.7-.02-.23-.02-.4.07-.49Zm-4.67-.6c-.31.02-.55.04-.74.04-.63,0-.65-.13-.85-1.15l-.04-.18c-.3-1.55.22-2.74,1.69-3.88.21,1.81.31,3.35.32,4.83,0,.28-.07.32-.38.33Zm-1.13.71h.04c.29-.02.52-.04.7-.04.67,0,.69.11.77,1.4.03.56.07,1.13.1,1.69.07,1.32.15,2.69.25,4.03.02.26-.01.41-.09.49s-.21.12-.45.12h-.07c-.11,0-.23-.02-.35-.03-.14-.02-.29-.03-.44-.03-.23,0-.43.04-.6.13l-.12-3.59c-.04-1.26-.09-2.52-.14-3.78-.02-.3.06-.38.41-.39Zm3.35-4.31v.81h.07c0,.19,0,.38-.01.57-.02.5-.03,1.03.03,1.53.06.52-.18.56-.54.61-.08,0-.16.02-.24.04-.07.02-.13.03-.19.03-.21,0-.25-.13-.29-.45,0-.05-.02-.09-.02-.14-.13-.79-.13-1.59-.14-2.38,0-.76,0-1.54-.12-2.32-.08-.51.3-.6.87-.7.14-.02.26-.04.36-.07.05-.02.09-.02.13-.02.05,0,.07.02.07.02.05.06.02.24,0,.36-.02.08-.03.16-.02.22.04.64.03,1.29.03,1.91Zm.07,5.4c0,.08,0,.17,0,.26h-.04s0,.1,0,.1c.04.51.07,1.02.1,1.53.08,1.23.16,2.51.26,3.76.03.39.04.69-.1.84-.08.08-.2.13-.39.13-.08,0-.18-.01-.28-.03-.33-.05-.41-.07-.43-.39-.21-2.66-.32-4.87-.34-6.94,0-.46.19-.47.52-.48.07,0,.14,0,.2-.01.05-.01.1-.01.15-.01.14,0,.23.03.29.08.06.07.08.19.06.36-.03.27-.03.54-.02.8Zm4.42,7.05c.06-.06.17-.09.37-.1h.07c.17,0,.28.03.34.09.06.07.08.19.06.38-.03.29-.02.58-.01.85,0,.13,0,.25,0,.38l.02.1.08,2.04c.08,2.27.17,4.54.24,6.81.01.35,0,.73-.06,1.11-.03.2-.14.3-.37.3h0c-.21-.01-.26-.09-.29-.27-.01-.08-.03-.17-.05-.25-.03-.11-.05-.23-.06-.33-.07-1.48-.13-2.96-.18-4.44-.02-.64-.04-1.27-.06-1.9-.05-1.43-.1-2.91-.18-4.36-.02-.23,0-.35.06-.41Zm-4.62,11.21c-.06-1.21-.13-2.41-.19-3.61,0-.08-.03-.15-.05-.22s-.04-.14-.04-.2c.04-1.56-.08-3.14-.21-4.66-.05-.65-.1-1.29-.14-1.94-.02-.22.01-.35.07-.42.03-.03.08-.07.22-.07.05,0,.1,0,.16.01.03,0,.07,0,.1,0,.06,0,.11,0,.17,0s.11-.01.16-.01c.13,0,.3,0,.31.42.08,2.94.2,5.56.35,8.01.02.29.04.58.06.86.06.68.11,1.39.09,2.09,0,.24.05.41.15.51.05.06.12.09.21.1-.29.02-.57.04-.85.04-.19,0-.36-.01-.53-.02l-.05-.9Zm1.71.8c.11-.12.1-.32.1-.47v-.04c-.02-.34-.03-.69-.05-1.03-.04-.92-.08-1.87-.16-2.8-.22-2.67-.32-4.88-.33-6.95,0-.44,0-.63.53-.63.21,0,.34.03.42.1.09.1.09.28.09.54-.02,1.39.09,2.79.19,4.15.1,1.29.2,2.63.19,3.94,0,.41.03.84.06,1.25.03.39.05.78.05,1.16,0,.03,0,.06,0,.09-.01.14-.03.39.23.45.04,0,.06.01.09.01.15,0,.34-.08.38-.49.05-.51.08-.96.03-1.42-.33-3.18-.46-6.42-.58-9.74.18-.05.32-.08.44-.08.36,0,.48.23.51.95.08,2.9.23,5.84.39,8.69l.08,1.58c.02.28.02.49-.08.59-.07.07-.21.11-.43.11h-.07c-.1,0-.21,0-.31,0-.5,0-1,.04-1.49.08-.14.01-.28.03-.41.04.05-.02.09-.04.12-.08Zm4.61-4.69c-.13-1.04-.13-2.1-.13-3.13,0-1.11,0-2.26-.16-3.38-.05-.35.01-.63.16-.8.12-.14.3-.21.52-.21.16,0,.34.04.53.1.17.05.16.14.16.29v.12c.03.34.06.69.09,1.03.14,1.59.26,3.08.23,4.5v1.64c0,1.33-.02,2.58.02,3.83,0,.29-.03.45-.11.54s-.25.13-.55.13c-.34,0-.52-.04-.61-.14-.09-.1-.13-.27-.11-.57v-.23c.06-1.23.11-2.49-.03-3.72Zm1.52-15.72c.06-.06.16-.1.3-.1.06,0,.13.01.21.02.06,0,.11,0,.18,0h.14s.09,0,.14,0q1.36,0,1.36,1.82l.08,1.24c.08,1.22.17,2.6.27,3.99.02.28,0,.43-.08.52-.08.08-.23.12-.49.12h-.08q-1.86-.02-1.92-1.96v-.07c-.06-1.66-.11-3.38-.21-5.06-.02-.26.02-.43.1-.52Zm-79.02-7.42c.2,1.57.2,3.2.2,4.77v.71c.01,2.53.11,5.09.21,7.57.13,3.35.27,6.82.18,10.23-.02.69-.1,1.04-.8,1.19-1.13.26-2.13.55-3.06.92-.15.06-.27.09-.35.09-.07,0-.09-.02-.1-.03-.06-.06-.06-.26-.06-.48,0-1.79-.04-3.61-.08-5.36-.02-.72-.04-1.44-.05-2.15-.04-1.9-.13-3.82-.21-5.68-.14-3-.27-6.1-.21-9.15.02-1.17.4-2.02,1.23-2.81,3.48-3.27,7.7-5.56,12.54-6.82,1.96-.51,3.9-.98,5.89-1.26-1.18.32-2.32.66-3.38,1.02-3.93,1.3-7.28,2.86-10.24,4.79-.26.17-.53.35-.79.55-.59.47-1.03.91-.91,1.9Zm15.58-8.33c.09-.05.2-.07.31-.07h.02l-.33.07Zm-49.08,10.26c.18-.02.34-.03.51-.03,1.65,0,2.7.88,3.13,2.59.26,1.06.33,2.17.4,3.23.03.52.06,1.05.12,1.57.18,1.72.18,3.42.19,5.21,0,1.01,0,2.04.04,3.08.12,1.32.12,2.73.13,4.09,0,.64,0,1.28.01,1.92,0,.19,0,.31-.05.36s-.16.07-.35.07h-.05c-.49,0-.98-.01-1.48-.01-1.69,0-3.35.04-4.9.09h-.08c-.45,0-.6-.09-.63-.66-.29-5.69-.32-11.49-.34-17.09v-1.19c-.02-1.85,1.21-3.04,3.36-3.26Zm-1.21,24.26v.18h-.7c-.17,0-.34,0-.55,0-.21,0-.35-.04-.43-.12-.08-.09-.11-.24-.1-.5v-.13q.05-.89.78-.89h.82c1.97,0,3.73-.03,5.4-.09h.06c.54,0,.56.28.58.76.02.34-.02.53-.13.65-.09.1-.25.15-.5.15-.74-.01-1.48-.02-2.22-.02h-3.02Zm6.28-6.86c0-.69.01-1.34.02-1.98.02-1.36.04-2.64-.04-3.91-.05-.77-.08-1.54-.11-2.31-.09-2.09-.18-4.26-.57-6.36-.22-1.2-.73-2.85-2.61-3.33-.48-.13-.95-.19-1.4-.19-1.34,0-2.52.52-3.52,1.53-.54.55-.85,1.32-.88,2.18-.08,3.36.01,6.78.1,10.08.05,1.79.1,3.65.12,5.47.02,1.44.06,2.9.1,4.32l.03.91s0,.08,0,.13c.02.27.03.44-.31.49-.05,0-.08,0-.12,0-.18,0-.19-.06-.21-.27,0-.08-.02-.17-.05-.26-.43-1.2-.44-2.47-.46-3.7v-.46c-.03-1.29-.08-2.6-.12-3.87-.08-2.25-.17-4.58-.13-6.87.01-.89-.03-1.79-.07-2.66-.05-1.08-.1-2.19-.05-3.28.16-3.09,1.52-4.72,4.56-5.48.46-.11.93-.17,1.39-.17,1.2,0,2.36.39,3.45,1.16,1.2.85,1.84,2.11,1.85,3.67.02,3.1.14,6.23.26,9.17.15,3.6.3,7.79.32,11.94v.08c0,.26,0,.45-.11.56-.08.08-.22.11-.43.11h-.05c-.61-.02-.79-.11-.78-.74.02-2.53-.04-4.44-.19-5.99ZM.75,75.08c0-.26,0-.52,0-.77,0-.69.02-1.4-.02-2.1,0-.19.02-.32.09-.39.04-.05.11-.07.2-.07.06,0,.13.01.2.03.04.02.09.02.14.02.07,0,.16-.01.24-.02.07,0,.15-.02.22-.02.16,0,.31.04.31.45,0,.49,0,.98-.01,1.47-.02,1.49-.04,3.02.17,4.53.02.13.05.39-.04.49-.03.03-.08.05-.15.05-.05,0-.11-.01-.18-.03-.06-.02-.12-.03-.19-.03-.09,0-.19.02-.29.03-.09,0-.19.02-.27.02-.2,0-.4-.04-.4-.54-.01-.7,0-1.41,0-2.11v-.93l-.02-.1Zm28.89-5.06c.03.34-.02.58-.15.73-.14.17-.39.26-.81.3h-.05c-.35.03-.62.06-.83.06-.39,0-.5-.08-.56-.24-.08-.21-.08-.59-.08-1.22v-1.02c0-.85,0-1.7,0-2.56-.01-.45.07-.66.57-.8l.1-.03c.69-.2,1.15-.33,1.43-.33.14,0,.23.03.29.09.19.19.18.71.18,1.7v1.1c-.01.26-.03.51-.05.74-.04.51-.08.99-.03,1.47Zm-3.59,15.75c-.14-1.81-.28-3.63-.43-5.43,0-.08-.02-.27.03-.32,0,0,.02-.02.06-.02.03,0,.06.01.1.02.04.01.08.02.13.02.09,0,.19-.02.29-.04.09-.02.18-.04.26-.04.11,0,.24.03.27.36.07.81.14,1.76.16,2.68.02.84.04,1.67.07,2.52.08,2.2.16,4.48-.03,6.72,0,.04,0,.08,0,.11,0,.18,0,.23-.22.23h0c-.32-.01-.41-.1-.43-.42-.04-1.15-.1-2.29-.15-3.44l-.05-1.16h.1s-.14-1.79-.14-1.79Zm-1.62-14.61s-.12.06-.24.06h-.14c-.35-.01-.51-.03-.53-.37-.03-.33-.05-.65-.08-.97-.05-.59-.1-1.19-.13-1.79-.02-.47.28-.69.66-.96.1-.07.21-.16.31-.24,0,0,.15,2.89.2,3.88.01.17.02.31-.05.38Zm-.7.71c.07-.07.19-.11.39-.11l.02-.1v.1c.15,0,.26.03.31.08.06.06.06.19.06.33,0,.05,0,.1,0,.16.08,1.46.17,2.91.26,4.32l.09,1.36c0,.15,0,.28-.01.4,0,.25,0,.47.02.69.02.13,0,.22-.04.27-.07.07-.21.08-.39.09-.05,0-.08,0-.12,0-.2,0-.31-.02-.32-.34-.08-2.01-.19-4.04-.3-6.01l-.04-.74c-.02-.21-.02-.4.07-.49Zm2.83,7.37s-.14.07-.27.07c-.03,0-.06,0-.09,0h-.11c-.36-.03-.51-.04-.54-.52-.18-2.32-.34-4.61-.34-7.01h.03s.09,0,.14,0c.06,0,.11,0,.17-.01.11-.02.21-.03.3-.03.38,0,.57.14.61.86.08,1.3.09,2.63.1,3.91.01.72.02,1.45.04,2.19,0,.04,0,.09,0,.13.01.16.02.32-.05.4Zm-.13-8.44c-.01.33-.15.4-.41.4-.06,0-.13,0-.2-.01-.07,0-.14-.01-.2-.01-.08,0-.15.01-.2.02-.05.02-.1.02-.15.02-.18,0-.23-.1-.23-.48,0-.29,0-.58,0-.87.01-.86.03-1.74-.17-2.62-.13-.57.07-.91.61-1.08.29-.09.56-.22.8-.34.06-.03.1-.06.15-.08,0,.46,0,.91.01,1.36,0,1.21.01,2.47-.03,3.7Zm-3.58-.83c.04.28.08.54.09.81.01.21-.02.36-.09.44-.06.06-.15.09-.3.09-.07,0-.14,0-.21-.01s-.14,0-.21,0c-.09,0-.17,0-.23.03-.07.02-.1.03-.13.03-.01,0-.03,0-.03-.01-.03-.03-.02-.16-.01-.24,0-.1.02-.2-.01-.28-.3-1.03.25-1.73,1.05-2.48-.06.6.02,1.13.08,1.63Zm-1.12,4.2c0-.6,0-1.1,0-1.6,0-.06,0-.13,0-.19-.01-.15-.02-.31.05-.38.04-.05.13-.07.24-.07.03,0,.07,0,.1,0,.08,0,.15.01.23.01h.09c.3,0,.52,0,.53.57.04,2,.17,4.03.3,5.99l.04.6c.01.16-.01.27-.06.32-.03.03-.07.05-.13.05-.05,0-.1-.01-.17-.03-.05-.02-.1-.02-.16-.02-.1,0-.21.02-.31.04-.1.02-.19.04-.28.04-.13,0-.24-.03-.26-.33-.03-.52-.07-1.04-.13-1.55-.09-.92-.17-1.8-.07-2.55v-.9Zm2.33,6.06c.1-.14.31-.21.61-.23h.08c.2,0,.28.05.29.32.09,1.61.19,3.22.28,4.55l.07,1.14c.02,2.23.13,3.85.3,5.6,0,.06.03.13.04.21.04.16.08.36.02.44-.03.04-.1.06-.2.06-.39,0-.84,0-.86-.73l-.03-.81c-.11-3.09-.22-6.29-.6-9.43-.01-.08-.03-.16-.04-.25-.05-.31-.11-.67.06-.88Zm3.09-6.3c0-.63,0-1.26,0-1.88,0-.23.06-.27.32-.34.34-.09.7-.1,1.03-.1h.45c.14,0,.27,0,.41-.01h.04c.08,0,.14.02.17.05.05.05.05.17.04.27v3.42h-.02s0,.74,0,1.06c0,.8,0,1.63.02,2.44,0,.35-.07.43-.44.44h-.06c-.27.02-.51.02-.71.02-.97,0-1.06-.13-1.17-1.67-.09-1.23-.08-2.48-.06-3.7Zm-19.56,1.29h-.04c0-.25,0-.49,0-.73,0-.67,0-1.37-.02-2.05,0-.22.02-.34.08-.41.06-.06.18-.09.38-.09h.34q.78,0,.78,1.06v1.14c.02,1.29.02,2.62.07,3.93.01.24-.04.42-.13.51-.1.1-.26.13-.48.13h-.17c-.12,0-.24,0-.35.04-.08.03-.16.04-.22.04-.07,0-.13-.02-.16-.06-.09-.09-.09-.32-.09-.54v-.05c0-.66,0-1.32,0-1.99v-.9Zm1.49-4.02s-.1.06-.21.06c-.05,0-.1,0-.17-.01h-.11q-1.2-.13-1.1-1.42c.03-.36.05-.72.08-1.15l.03-.49.07.07c.73.84,1.37,1.57,1.45,2.61.01.13.02.28-.04.33Zm-2.1-3.13c-.19.65-.17,1.31-.14,1.95,0,.22.02.45.02.67,0,.43-.06.54-.51.54h-.08q-1.32,0-1.32-1.38v-3.29c.68.2,1.23.57,1.79.94.23.15.31.34.25.56Zm-1.56,3.86h.06c.15,0,.29,0,.41,0,.96,0,.96.03.96,1.37v.97c-.07.64,0,1.32.08,2.05.07.6.14,1.23.11,1.85-.02.47-.07.59-.52.59h-.14c-.63-.02-.97-.02-1.12-.17s-.15-.51-.14-1.22c.02-.78-.04-1.56-.1-2.32-.06-.86-.14-1.76-.09-2.64.02-.41.09-.48.49-.48Zm-.01,7.47c.08-.08.21-.12.43-.12.07,0,.14,0,.22.01.06,0,.11,0,.18,0h.23c.2,0,.35.02.44.11.1.1.15.3.15.59-.01.73.03,1.48.07,2.2.05.85.09,1.73.06,2.59-.05,1.28.04,2.58.11,3.83.06.89.11,1.81.13,2.71,0,.3,0,.33-.28.35h-.04c-.32.03-.58.05-.78.05-.62,0-.64-.11-.67-1.31v-.06c-.04-1.4-.1-2.81-.17-4.19-.09-2.03-.18-4.12-.21-6.18,0-.31.04-.5.14-.6Zm-2.7-7.18c-.03-.14-.03-.23.01-.28.02-.03.07-.04.13-.04.04,0,.09,0,.14.02.09.02.19.02.28.02h.09q.9.03.94.78l.02.29c.05.65.05,1.31.04,1.95,0,1.02,0,2.07.18,3.09.05.3.04.48-.04.58-.07.09-.22.13-.45.13h-.28q-.92-.06-.92-1.03v-2.01c-.02-.42-.01-.83,0-1.22.02-.79.03-1.53-.14-2.27Zm1.65-4.9c-.15.9-.15,1.84,0,2.88.07.49.1.79,0,.9-.09.1-.36.11-.77.11h-.21c-.13.04-.23.05-.32.05-.11,0-.19-.03-.23-.08-.14-.14-.11-.49-.08-.87.08-1.26,0-2.52-.08-3.48-.03-.29.01-.47.1-.57.07-.08.19-.11.37-.11.09,0,.19.01.31.02.46.06.76.13.89.3.11.14.12.38.04.85Zm-2.62-1.34c.2,0,.22.1.23.39,0,.09,0,.18.02.26.16.85.15,1.71.14,2.56,0,.53-.02,1.07.02,1.61,0,.18-.02.3-.07.36-.04.05-.11.07-.21.07-.08,0-.16-.01-.24-.03h-.08s-.06-.02-.09-.02c-.06,0-.14,0-.2.02-.06,0-.13.01-.19.01-.11,0-.18-.02-.22-.07-.06-.07-.09-.2-.07-.39.01-.17.02-.34.02-.51,0-.3,0-.59,0-.89,0-.21,0-.41,0-.62s0-.41,0-.61c0-.14.01-.27.01-.39,0-.3,0-.66-.03-1.01-.06-.58.28-.64.69-.71l.15-.03c.06-.01.11-.02.16-.02Zm-.64,26.14c-.05-.05-.03-.21,0-.33.02-.08.02-.16.02-.22-.03-.54-.03-1.1-.02-1.63v-.64c-.15-3.77-.21-6.68-.19-9.43,0-.46.03-.61.33-.61.05,0,.11,0,.17.01.1.02.21.02.31.02.38.01.6.02.6.62-.01,2.55,0,5.27.19,7.94.04.63.02,1.27-.02,1.89-.03.58-.06,1.17-.02,1.76.01.21-.03.35-.11.44-.13.13-.36.13-.59.13-.16,0-.31,0-.45.04-.06.02-.11.03-.16.03-.06,0-.07-.01-.07-.02Zm1.9-8.36c-.05-1.23-.1-2.5-.15-3.75,0-.06-.01-.13-.02-.2-.04-.3-.03-.44.13-.47.28-.05.54-.08.78-.08.28,0,.54.04.78.11.02.04.03.16.04.23,0,.06.01.12.02.17.16,1.13.17,2.26.14,3.85l.09,1.8c.08,1.72.17,3.67.29,5.58.02.33,0,.58-.13.71-.1.11-.28.16-.55.16h-.22q-.99-.04-.99-1.14c0-2.32-.1-4.68-.2-6.96Zm5.08-4.49h.05c.2-.01.36-.02.51-.02.62,0,.62.06.63,1.13,0,.2.01.4.01.6,0,.18.01.35.01.53,0,.24,0,.49,0,.73v.31c-.02,1.36.04,2.74.1,4.08.05,1.11.1,2.26.1,3.39,0,.35,0,.71-.02,1.06-.01.51-.14.6-.49.6-.05,0-.09,0-.14-.01-.06,0-.13,0-.18,0-.38-.01-.57-.01-.6-.57-.15-2.58-.22-5.21-.29-7.75-.04-1.21-.07-2.42-.11-3.63,0-.39.07-.43.42-.44Zm14.12,11.32c.02-.2.05-.41,0-.6-.19-.99-.16-2.02-.13-3.01.01-.39.02-.77.02-1.15,0-1.56-.09-3.14-.17-4.67l-.03-.56c-.01-.2.02-.34.09-.41.04-.04.09-.06.17-.06.06,0,.13.02.2.04.05.02.1.02.16.02.1,0,.22-.02.33-.05.1-.02.21-.04.3-.04.13,0,.27.03.28.41.05,1.58.16,3.18.27,4.72.15,2.09.3,4.26.29,6.39v.34c-.15-.04-.29-.07-.44-.11-.4-.09-.78-.18-1.08-.37-.32-.19-.29-.52-.25-.9Zm6.59,2.42q-1.12-.28-1.12-1.51v-3.65c.07-1.97-.05-4.44-.34-7.15-.03-.26-.04-.53.07-.66.06-.06.15-.09.27-.09.08,0,.17.01.27.03.02,0,.03,0,.05,0h.15c.19,0,.4-.05.6-.09.18-.04.34-.08.48-.08.15,0,.2.05.23.09.22.33.16.9.11,1.42l-.02.21c-.22,2.32-.13,4.68-.04,6.96.05,1.3.1,2.64.09,3.95,0,.6-.16.65-.34.65-.1,0-.22-.02-.42-.07h-.04Zm99.92-52.69h1.37c-.23.09-.46.14-.68.14s-.45-.04-.69-.14Zm1.72.65l.13-.02.02-.02c.41-.31.81-.46,1.22-.46.29,0,.59.08.9.23.22.11.47.17.74.17.22,0,.47-.04.69-.12.12-.04.22-.06.32-.06.14,0,.27.04.41.13-.55.48-1.13.73-1.72.73-.5,0-1.01-.18-1.49-.52-.18-.13-.39-.25-.61-.25-.15,0-.29.05-.45.16-.59.54-1.04.79-1.4.79s-.69-.27-1.02-.86c.35.14.71.2,1.13.2.39,0,.77-.05,1.14-.1ZM103.64,4.71c1.1.02,2.06.1,2.97.26-.4.23-.79.34-1.2.34-.65,0-1.27-.29-1.78-.59Zm.13.99c.54.21,1.08.31,1.59.31.67,0,1.32-.18,1.94-.52.15-.08.28-.13.41-.13.1,0,.2.03.29.1.09.06.18.17.27.3-.58.55-1.36.88-2.19.92h-.15c-1.02,0-1.94-.42-2.56-1.16.14.06.27.12.4.17Zm23.52,3.15c0,.08-.03.11-.13.14-.04.02-.09.02-.15.02-.68,0-2.09-.74-2.24-1.18-.05-.15-.06-.26-.03-.31.03-.05.12-.06.19-.06.04.03.08.07.13.11.14.13.3.27.49.36.53.27,1.07.49,1.57.71.14.05.17.09.17.2Zm23.39,40.41c.15-.02.31-.04.46-.04.35,0,.61.1.84.33-.04,0-.07,0-.11,0-.4,0-.77-.14-1.13-.28-.02,0-.04-.01-.05-.02Zm-52.36-32.15c-.84.51-1.7.77-2.56.77s-1.71-.26-2.56-.77c.88-.84,1.76-1.26,2.61-1.26s1.69.42,2.51,1.26ZM57.8,2.01c.36,0,.77.19,1.15.39.14.07.28.14.41.2-.34.51-.75.77-1.22.77-.42,0-.88-.21-1.35-.62.29-.5.6-.73,1.01-.73Zm2.13,1.02c.06-.09.12-.14.16-.14.07,0,.18.14.21.18.43.56,1.03.9,1.85,1.06-.35.54-.72.79-1.16.79-.25,0-.52-.08-.83-.24-.42-.22-.88-.37-1.32-.52-.17-.06-.34-.11-.52-.17.69-.1,1.21-.42,1.6-.97Zm52.66,5.15c-.65,0-1.23-.24-1.68-.71.16,0,.32,0,.43-.09.39-.31.77-.47,1.16-.47.6,0,1.16.39,1.67.82-.53.29-1.07.44-1.58.44Zm14.57,30.64c0,.67-.13.79-.8.8-.15,0-.3,0-.45,0-1.51,0-3.02-.06-4.49-.12-.99-.04-2.02-.08-3.02-.1,0-.32,0-.64.01-.95.02-.74.03-1.51-.03-2.26-.16-2.31-.14-4.66-.13-6.94.01-1.1.02-2.24,0-3.36-.02-1.55-.83-2.61-1.72-3.54-.31-.32-.85-.49-1.53-.49-.98,0-2.08.36-2.73.9-.8.67-1.26,1.56-1.43,2.83-.38,2.79-.35,5.65-.32,8.4.02,1.47.04,3.01-.02,4.53,0,.08,0,.16,0,.24,0,.03,0,.07,0,.1,0,.19,0,.49.27.55-1.97,0-3.94,0-5.9,0-.39,0-.58-.15-.63-.48-.06-.44-.14-.87-.2-1.31-.18-1.19-.37-2.43-.51-3.65-.2-1.73-.46-3.48-.73-5.18-.08-.53-.16-1.05-.24-1.57-.19-1.28-.35-2.58-.51-3.83-.09-.76-.19-1.51-.29-2.26-.03-.22-.01-.38.06-.45s.19-.11.39-.11c.04,0,.07,0,.11,0,3.84.21,7.74.28,11.53.34,2.09.04,4.24.07,6.36.13,1.24.04,2.47.04,3.49.04h2.97s.19,0,.22,0c.1,0,.15.01.18.04.05.05.07.15.07.31-.04,6.41-.06,12.1-.04,17.39Zm23.7,12.91c-.41.55-.85.82-1.32.82-.4,0-.81-.2-1.22-.6-.26-.24-.57-.36-.86-.47-.11-.04-.22-.08-.32-.13.44-.14.77-.21,1.13-.21.58,0,1.28.19,2.59.59Zm-37.53-10.44c-.23,0-.49-.1-.78-.31-.13-.09-.27-.2-.4-.33-.22-.21-.45-.38-.68-.49h2.93c-.26.75-.61,1.14-1.07,1.14Zm4.48,1.43s.25.18.3.21c-.36.22-.76.39-1.16.47-.21.05-.42.07-.63.07-.5,0-.94-.14-1.26-.4-.26-.21-.38-.36-.36-.48.02-.11.17-.24.46-.38.23-.11.48-.17.74-.17.51,0,1,.21,1.48.42.16.07.3.16.43.24Zm1.84.11c-.01-.08.05-.13.24-.2.08-.03.16-.06.22-.1.38-.26.78-.48,1.18-.66.18-.08.36-.12.56-.12.47,0,.94.24,1.22.63.05.07.07.12.06.16,0,.05-.07.08-.13.13-.03.02-.05.03-.07.05-.56.42-1.22.66-2.03.74h-.06c-.21,0-.41-.05-.66-.16h-.03c-.26-.11-.49-.22-.51-.45Zm-.91-.49c-.35,0-.66-.18-1.21-.6.54-.03.98-.23,1.29-.6.2-.23.38-.35.56-.35.16,0,.33.08.56.27.18.14.4.28.68.31-.91.64-1.44.97-1.88.97Zm-1.54-1.21c-.55,0-1.11-.34-1.57-.97h3.1c-.43.64-.97.97-1.53.97Zm16.71,3.82c.1,0,.23.06.4.19.37.29.76.42,1.22.42.04,0,.08,0,.13,0-.14.09-.26.18-.38.26-.44.3-.82.57-1.21.77-.38.19-.76.29-1.15.29-.43,0-.85-.12-1.23-.35-.33-.2-.67-.33-1.05-.41-.21-.04-.43-.06-.7-.06-.29,0-.59.04-.95.1.09-.07.19-.14.27-.23.22-.26.36-.35.52-.35.14,0,.3.07.49.22.29.22.66.34,1.08.34.7,0,1.49-.34,2.11-.92.21-.19.33-.27.46-.27Zm8.9,4.92c-.33.18-.64.35-.94.51-.33.17-.59.26-.83.26-.29,0-.55-.12-.79-.36-.31-.31-.72-.36-1.13-.39.61-.52,1.13-.76,1.67-.76.4,0,.81.13,1.31.38.28.15.57.23.89.27l-.18.1Zm-3.11-1.19c-.54.19-.97.47-1.3.82-.31.34-.63.49-.98.49-.29,0-.62-.1-1.05-.33-.1-.05-.23-.13-.24-.19-.01-.07.12-.22.16-.27.58-.66,1.2-.97,1.89-.97.47,0,.97.15,1.53.45Zm-7.16-.17c.29-.22.57-.43.88-.59.18-.09.39-.2.6-.2.12,0,.24.03.35.08.7.34.89.41,1.43.41.13,0,.28,0,.46-.01-.63.71-1.08,1.05-1.76,1.05-.54,0-1.23-.2-2.21-.56.09-.06.17-.11.24-.18Zm-2.77-1.79c.5,0,1.03.14,1.65.42.38.18.76.35,1.22.35h.08c-.65.65-1.34.95-2.16.95s-1.58-.28-2.35-.55c-.2-.07-.41-.14-.61-.21.72-.66,1.41-.96,2.18-.96Zm7.09,4.92c.87-.79,1.47-1.11,2.07-1.11.46,0,.93.21,1.42.64-.69.59-1.33.86-1.99.86-.45,0-.94-.13-1.49-.39Zm9.57-1.69c-.42,0-.86-.11-1.29-.23-.29-.07-.58-.15-.88-.19.7-.45,1.43-.91,2.16-.91.49,0,.96.2,1.41.63-.38.48-.83.7-1.41.7Zm-.69-1.98c-.39.1-.75.3-1.1.49-.49.27-.95.52-1.49.52-.27,0-.55-.07-.83-.2.38-.11.73-.29,1.07-.47.51-.27.99-.51,1.56-.51.27,0,.53.05.8.17Zm-8.35-.88c-.74.37-1.21.52-1.61.52s-.78-.15-1.21-.48c.93-.86,1.89-1.28,2.92-1.28.58,0,1.21.13,1.95.4-.75.19-1.4.52-2.05.84Zm-6.05-1.74c-.32,0-.65-.1-.98-.31.11-.07.22-.15.33-.21.49-.31.99-.63,1.32-1.15.33.34.67.65,1.14.85-.6.43-1.17.82-1.81.82Zm-.25-2.48s-.07,0-.15-.02c-.28-.04-.74-.11-.89-.32-.04-.06-.05-.12-.04-.2.05-.28.65-.63,1.11-.73h.03c.14,0,.35.18.55.33.08.07.16.13.24.19-.24.51-.51.75-.84.75Zm-1.97,1.67c-.68,0-1.29-.26-1.73-.71.17-.08.34-.15.51-.22.45-.19.88-.38,1.27-.67.07-.05.14-.1.21-.1.05,0,.1.04.16.1.35.4.82.58,1.48.58h.17c-.46.64-1.23,1.02-2.06,1.02Zm-.27.71c-.45.42-1.02.66-1.56.66-.36,0-.68-.11-.93-.32l-.08-.06c-.17-.14-.36-.3-.37-.47,0-.09.06-.18.17-.27.06-.05.11-.11.18-.18.14-.16.29-.31.45-.31.12,0,.26.09.4.28.36.45.89.68,1.62.68.04,0,.07,0,.11,0Zm-5.32-.24c-.83,0-1.62-.34-2.22-.97.76-.06,1.39-.31,1.91-.76.17-.14.31-.21.43-.21.14,0,.27.08.42.24.46.5,1.02.76,1.67.76h.03c-.62.61-1.41.95-2.23.95Zm.74-2.92c-.48,0-.81-.26-1.16-.52-.17-.13-.34-.27-.54-.37.29-.18.57-.33.88-.33.23,0,.47.09.72.28.33.25.72.28,1.03.28.16,0,.33-.01.51-.02.14-.01.28-.02.42-.02-.52.46-1.08.68-1.81.7h-.04Zm-1.45-1.77c-.63.32-1.12.46-1.56.46-.49,0-.93-.19-1.36-.59.42-.03.86-.04,1.33-.04.61,0,1.23.02,1.84.05-.08.03-.17.07-.26.12Zm-11.63-.99c.09-.12.06-.28.04-.41,0-.05-.02-.1-.02-.14,0-1.23,0-2.46,0-3.69,0-2.17,0-4.42.03-6.63.01-1.08.13-2.23.36-3.52.22-1.26,1.82-2.46,3.28-2.46.2,0,.39.03.57.07.81.22,1.98,1.85,2.05,2.87.18,2.68.17,5.4.15,8.04-.01,1.65-.02,3.36.02,5.05v.21c-.01.21-.02.45.09.71h-6.76c.08-.02.15-.06.19-.11Zm-2.16,1.98c.29-.15.54-.28.8-.41.29-.14.55-.21.8-.21.37,0,.72.16,1.05.49.54.53,1.04.79,1.53.79.55,0,1.08-.35,1.57-1.04.1-.15.19-.23.23-.23.06,0,.18.14.22.19.15.18.31.35.49.53.02.02.04.05.07.07-.82,0-1.44.4-2.06.84-.44.31-.87.47-1.32.47-.34,0-.69-.09-1.07-.26-.6-.27-1.22-.52-1.87-.78-.23-.09-.48-.19-.73-.3l.3-.15Zm4.8,1.76c.23,0,.47.16.76.5.38.44,1.03.69,1.79.69.63,0,1.23-.17,1.7-.48l.06-.05c.3-.19.56-.37.8-.37.2,0,.4.13.59.41.1.13.27.19.45.24.04.01.09.03.13.04-.61.85-1.13,1.2-1.79,1.2-.37,0-.8-.11-1.35-.34-.88-.38-1.76-.74-2.64-1.12l-1.08-.45c.21-.19.4-.27.57-.27Zm6.67,1.67s.05-.07.07-.1c.04-.06.1-.14.14-.14.01,0,.05,0,.14.1.61.75,1.39,1.11,2.36,1.11.34,0,.7-.04,1.1-.13.02,0,.04,0,.06,0-.45.46-1.02.79-1.64.95-.09.02-.17.04-.26.06-.18.04-.35.05-.53.06h-.15c-.4,0-.8-.07-1.19-.2-.39-.14-.78-.31-1.19-.48-.13-.06-.27-.11-.4-.17.72-.27,1.15-.68,1.47-1.06Zm4.83.89s.08-.06.1-.06c0,0,.02,0,.04.03.44.67,1.03.98,1.85.98.23,0,.47-.02.76-.07-.27.13-.53.28-.78.43-.41.24-.83.48-1.28.65-.13.05-.25.08-.38.11-.36.09-.69.13-1.03.13-.68,0-1.33-.18-2.02-.55,1.13-.34,2.03-.88,2.72-1.64Zm1.51,2.73c.36,0,.67.03.86.09.57.17,1.14.35,1.74.54l.65.21c-.47.44-.84.63-1.25.63-.25,0-.52-.07-.8-.23-.6-.32-1.23-.58-1.89-.85-.21-.08-.41-.17-.62-.26.38-.08.86-.13,1.31-.13Zm4.92,1c.56,0,1.21.22,2.21.63-.78.79-1.17,1.11-1.76,1.11-.53,0-1.2-.26-2.48-.81.84-.63,1.39-.93,2.03-.93Zm2.06,1.67c.06-.04.11-.08.16-.13s.08-.08.12-.11c.07-.06.14-.13.2-.19.36-.4.71-.59,1.05-.59.25,0,.51.09.78.29.18.13.38.21.59.31.06.03.11.05.17.07-.65.57-1.38.85-2.24.85-.15,0-.3-.01-.45-.03-.26-.03-.48-.11-.53-.2-.06-.09-.02-.15.17-.27Zm4.6,1.77c-.31.53-.61.74-1.02.74-.24,0-.53-.08-.89-.24l-2.26-1.04c.3-.11.61-.17.95-.17.61,0,1.22.18,1.81.36.45.14.93.28,1.4.34Zm1.72-.05h.11c.4.03.71.25,1.04.49.17.12.34.24.53.34l-3.4.18c.55-.6,1.03-1.02,1.72-1.02Zm1.34-1.06c.25,0,.52.06.81.17.49.19,1.14.41,1.84.41.17,0,.34-.02.51-.04-.19.67-.46.88-1.08.88-.29,0-.66-.05-1.21-.15-.28-.05-.53-.2-.79-.35-.36-.2-.73-.42-1.21-.42-.03,0-.06,0-.08,0,.4-.33.79-.49,1.21-.49Zm4.67-.73c-.83.41-1.4.58-1.97.58-.54,0-1.11-.15-1.95-.52.69-.48,1.34-.72,2-.72.42,0,.83.09,1.28.28.26.11.52.16.8.16.19,0,.38-.03.56-.08-.24.08-.48.18-.72.3Zm-2.88-3.39c-.64.41-1.32.77-2.08.77-.39,0-.77-.09-1.17-.29-.59-.3-1.22-.45-1.86-.45h-.09c.54-.44,1.15-.65,1.88-.65.32,0,.66.04,1.03.13.21.05.42.1.62.16.54.15,1.09.3,1.68.32Zm-4.42-3.91c-.18,0-.38-.03-.6-.09.06,0,.13-.01.2-.02.24-.01.49-.03.74-.07.28-.05.5-.14.7-.26-.3.3-.64.44-1.04.44Zm-2.81,1.22c-.36,0-.73-.07-1.14-.21.31-.11.6-.3.88-.48.38-.24.73-.47,1.09-.47.31,0,.61.17.93.52-.56.43-1.15.64-1.76.64Zm-.27-1.45c-.08.06-.16.11-.24.17-.41.28-.87.43-1.34.43-.68,0-1.3-.32-1.66-.86-.2-.3-.22-.43-.09-.53.03-.03.05-.03.06-.03.03,0,.08.09.12.15.03.06.07.13.11.17.47.47.97.7,1.52.7s1.12-.22,1.77-.69c.22-.16.35-.26.45-.26.08,0,.18.08.33.24-.44.05-.74.28-1.03.5Zm-10.43-2.66c-.47,0-.9-.14-1.2-.38-.07-.05-.14-.1-.2-.14.08,0,.17.01.24.01.83.04,1.68.09,2.53.1-.38.26-.86.41-1.37.41ZM66.74,4.15c.8-.14,1.34-.39,1.78-.8.11-.1.18-.16.24-.16s.13.04.23.14c.24.25.52.45.8.64.07.06.15.1.22.16-.67.32-1.32.49-1.91.49-.55,0-1.02-.16-1.36-.46Zm15.11.74c-.13.14-.24.27-.4.34-.54.28-1.06.41-1.59.41-.57,0-1.17-.16-1.8-.48.77-.07,1.48-.28,2.16-.48.33-.1.68-.2,1.02-.29.06-.02.13-.03.19-.04.11-.02.21-.03.31-.03.22,0,.42.04.61.14-.21.09-.36.26-.51.42Zm-2.09,1.52c.68,0,1.36-.2,2.03-.59.44-.26.94-.55.98-1.18.03,0,.05.02.07.03.04.05.05.14.04.24v.08c-.02.37.17.63.36.9.02.03.04.05.06.07-.57.14-1.13.4-1.72.8-.66.45-1.17.65-1.66.65s-1.03-.22-1.68-.72l-.23-.18c-1.03-.78-1.23-.86-2.36-.88.36-.25.65-.36.94-.36.31,0,.64.13,1.03.41.66.49,1.39.73,2.15.73Zm20.05.45c-.41,0-.82-.1-1.21-.29.06,0,.12,0,.18,0,1.03,0,1.97-.24,2.96-.51-.56.51-1.23.79-1.92.79Zm-.38,1.41c.31.41.73.66,1.19.87-.72.21-1.48.39-2.21.39-.9,0-1.62-.28-2.28-.86.2-.11.38-.27.55-.42.2-.19.41-.38.68-.48.26-.11.52-.16.77-.16.52,0,.97.23,1.3.67Zm3.67,3.15c.4-.19.79-.29,1.19-.29.84,0,1.62.41,2.44.84.18.1.37.2.56.29-.23.05-.46.08-.7.08-.72,0-1.41-.25-2.06-.49-.47-.17-.94-.34-1.43-.43Zm11.54-1.73c.55-.48,1.08-.72,1.6-.72s1.03.24,1.53.73c-.49-.04-.99-.05-1.52-.05-.57,0-1.13.02-1.61.04Zm5.26.19c-.61,0-1.21-.3-1.74-.88.4-.22.78-.33,1.15-.33.6,0,1.17.3,1.68.89-.35.21-.72.32-1.08.32Zm3.75.86c.58,0,1.3.26,2.43.88-.64.24-1.26.36-1.86.36-.73,0-1.46-.18-2.15-.54.59-.5,1.06-.7,1.58-.7Zm-8.85,3.07c1.05,0,1.99.25,2.89.76-.51.06-.98.25-1.45.43-.56.22-1.09.42-1.68.43h-.04c-.68,0-1.27-.27-1.9-.56-.34-.16-.7-.32-1.07-.44,1.3-.43,2.31-.62,3.25-.62Zm1.52-.58c.53-.25,1.05-.37,1.59-.37,1,0,1.92.42,2.69.85-.45.24-.91.36-1.4.36-.84,0-1.65-.33-2.49-.68l-.39-.16Zm2.1,1.97c.99,0,2.03.35,3.08,1.04-.96.51-1.82.75-2.63.75-1.01,0-1.89-.39-2.7-1.18.73-.41,1.49-.61,2.25-.61Zm-2.32-2.65c-.34.1-.65.2-.96.32-.42.15-.83.22-1.22.22-.54,0-1.07-.15-1.57-.44-.57-.33-1.11-.62-1.79-.7.6-.32,1.21-.48,1.87-.48.96,0,1.88.33,2.84.67.33.12.67.24,1.02.35-.06.02-.13.04-.19.06Zm-3.97,4.49c-.19.08-.4.18-.58.29-.42.27-.85.4-1.29.4-.49,0-1.01-.18-1.51-.53-.52-.36-1.09-.71-1.88-.71h-.06c.55-.38,1.05-.56,1.53-.56s.91.16,1.37.49c.62.44,1.21.65,1.82.65.27,0,.54-.04.8-.13h0c-.06.04-.13.06-.2.09Zm1.02-1.13s-.09.03-.13.05c-.52.2-1.02.39-1.51.39-.36,0-.69-.11-1.01-.32-.11-.08-.24-.15-.36-.22-.14-.08-.3-.15-.48-.22-.53-.21-1.11-.33-1.78-.37.63-.24,1.24-.36,1.89-.36,1.07,0,2.18.35,3.39,1.06Zm-4.34,2.11c-.8.64-1.65,1.24-2.51,1.24-.65,0-1.23-.34-1.79-1.04.92-.7,1.72-1.04,2.45-1.04.66,0,1.27.28,1.84.84Zm6.53.36c-.89.46-1.75.85-2.61.85-.69,0-1.31-.26-1.89-.8l.3-.15c1.16-.55,1.86-.88,2.46-.88.54,0,1.01.26,1.73.97Zm1.54-6.71c-1.11,0-2.23-.41-3.19-.82.57-.44,1.44-.68,2.41-.68,1.11,0,2.22.32,3.02.86-.7.43-1.43.64-2.24.64Zm-7.1.94c.91,0,1.72.27,2.46.81-.45.2-.9.3-1.38.3-.93,0-1.82-.37-2.76-.76l-.13-.06c.67-.19,1.27-.29,1.81-.29Zm-7.28,3.5c.56,0,1.13.19,1.76.59.11.07.22.11.35.15.18.05.37.06.53.06h.22c-.95.66-1.57,1-2.15,1-.32,0-.65-.1-1.04-.31-.33-.18-.7-.43-1.28-.87.52-.41,1.05-.61,1.61-.61Zm20.23,2.91l-.47.17s-.49.17-.59.2c-.47.16-.86.27-1.2.27-.44,0-.82-.18-1.33-.63l.05-.02h0c.75-.35,1.51-.7,2.26-.7.23,0,.45.03.67.1.17.05.34.13.5.23.13.08.26.18.39.29-.09.03-.18.06-.27.09Zm4.52-.63s-.02.03-.08.03c-.02,0-.03,0-.05,0-.13-.02-.27-.03-.41-.03-.38,0-.76.06-1.12.12-.24.04-.48.08-.73.1-.08,0-.17.01-.26.01-.54,0-1.05-.16-1.56-.48-.55-.35-1.14-.53-1.73-.53-.48,0-.98.12-1.48.35-.59.28-1.19.42-1.78.42-.91,0-1.85-.34-2.77-1.03-.53-.39-1.11-.58-1.78-.58-.28,0-.59.04-.95.11l.26-.07c.36-.1.71-.21,1.07-.32.36-.11.69-.17,1.01-.17.53,0,1,.16,1.44.49.84.63,1.69.94,2.58.94.64,0,1.28-.16,1.97-.48.6-.28,1.19-.42,1.74-.42.68,0,1.33.21,1.94.63.62.43,1.26.64,1.9.64.18,0,.38-.02.58-.06.07-.02.13-.03.18-.03.04,0,.06,0,.07.16,0,.11-.01.18-.04.2Zm.04-1.39c.02.31-.17.34-.49.38-.07,0-.14.01-.2.01-.68,0-1.28-.32-1.85-.64l-.09-.05c-.29-.16-.59-.32-1.01-.4.56-.31,1.11-.45,1.68-.45.52,0,1.05.12,1.69.37.29.12.28.31.27.57,0,.08,0,.15,0,.22Zm-1.98-1.95c-.43,0-.87.09-1.28.27-.46.2-.9.29-1.35.29-.62,0-1.24-.19-1.92-.59-.18-.1-.36-.18-.6-.28-.05-.02-.11-.05-.17-.07l.43-.14c.44-.14.82-.26,1.2-.36.33-.1.66-.15.95-.15.41,0,.77.09,1.06.28,1.1.69,2.26.8,3.26.83.04,0,.08,0,.12-.01.04,0,.08,0,.11,0,.09,0,.14.02.16.13.02.07,0,.17,0,.26,0,.01,0,.02,0,.03-.03,0-.05,0-.07-.01-.13-.02-.24-.04-.34-.08-.51-.26-1.04-.39-1.57-.39Zm-3.05-1.93c-.16.06-.34.09-.52.09-.31,0-.64-.08-1.02-.26-.84-.38-1.64-.64-2.48-.82.57-.26,1.13-.38,1.72-.38s1.26.14,1.93.41c.77.32,1.49.49,2.21.52-.6.06-1.22.2-1.85.43Zm-1.68-5.48c-.19,0-.41-.05-.64-.15-.16-.07-.32-.14-.48-.21-.45-.2-.91-.4-1.42-.54.1-.05.19-.08.27-.08.11,0,.23.05.38.14.51.32,1.07.48,1.67.48.33,0,.68-.05,1.05-.16-.2.34-.47.51-.83.51Zm-3.95.07c.46-.17.8-.27,1.11-.27.41,0,.8.17,1.41.52-.44.22-.83.33-1.19.33-.46,0-.89-.18-1.33-.58Zm-1.01.15c.14,0,.26.13.41.29.04.05.08.09.12.14h-.1c-.63,0-1.05.23-1.38.46-.61.42-.98.58-1.34.58s-.79-.19-1.3-.5c.12,0,.24.01.35.01,1.11,0,2.08-.29,2.99-.89.1-.06.18-.09.26-.09Zm-7.08,2.04c1.02,0,1.91.33,2.72,1.01-.32.07-.64.21-.96.35-.27.12-.54.23-.82.32-.28.08-.57.13-.87.13-.42,0-.86-.08-1.33-.26-.31-.11-.59-.29-.86-.46-.26-.16-.51-.31-.76-.41,1.15-.47,2.05-.69,2.89-.69Zm-22.55,2.8c.48-.61.98-.91,1.54-.91.68,0,1.38.44,2.04.88.11.07.22.15.33.21-.55.43-1.14.65-1.73.65-.69,0-1.41-.27-2.18-.83Zm7.56-4.23c-1.22.48-1.84.69-2.4.69-.65,0-1.21-.28-2.33-.84-.11-.05-.22-.1-.33-.17h.05c.83,0,1.5-.27,2.1-.57.19-.1.37-.14.56-.14.34,0,.65.15.97.31.17.08.35.17.54.24.24.08.46.23.69.39.05.04.1.07.16.1Zm3.19,4.2c-.48.33-1.01.5-1.6.5-.77,0-1.64-.27-2.67-.84.6-.38,1.2-.56,1.82-.56.77,0,1.57.3,2.45.9Zm-11.94-3.94c.22-.09.45-.2.68-.29.36-.14.68-.2,1-.2.35,0,.7.08,1.06.25.24.11.48.23.72.35.61.3,1.24.62,1.95.85-.33.1-.64.22-.93.34-.46.19-.89.36-1.37.44-.2.04-.4.05-.57.05-.48,0-.87-.11-1.15-.34-.11-.09-.23-.18-.35-.26-.3-.2-.61-.37-.95-.51-.34-.14-.7-.23-1.07-.29.34-.11.67-.26.99-.4Zm4.81,1.94l.18-.08c.47-.2.86-.33,1.19-.33.54,0,.98.34,1.79,1.17-.14.06-.27.11-.4.17-.4.17-.78.33-1.18.45-.28.09-.52.13-.74.13-.36,0-.68-.11-.97-.34-.38-.3-.8-.54-1.26-.69.51-.09.96-.29,1.4-.47Zm8.85,1.54c-.85,0-1.74-.32-2.54-.91l.1-.05c.56-.29,1.1-.56,1.68-.56.17,0,.32.02.48.06.32.08.59.24.89.42.36.21.73.43,1.18.48-.51.36-1.13.56-1.79.56Zm-2.65-1.68c-.46.24-.93.49-1.48.55-.06,0-.12.01-.18.01-.7,0-1.15-.42-1.57-.82-.19-.18-.38-.35-.58-.49.97-.51,1.82-.76,2.58-.76.89,0,1.69.33,2.42,1.03-.42.08-.8.28-1.19.49Zm-11.43-2.38c-.16.07-.32.13-.47.2-.52.21-1.08.33-1.58.33s-1.16-.11-1.53-.65l.17-.11c1.05-.67,2.13-1.35,3.23-1.35.75,0,1.45.32,2.14.98-.7.07-1.33.34-1.95.61Zm-6.25.26c.46-.17.82-.25,1.14-.25.52,0,.94.2,1.35.63.39.41.89.61,1.53.61.14,0,.29-.01.44-.03-.14.09-.27.18-.4.28-.41.29-.83.58-1.29.76-.11.04-.22.08-.33.11-.23.06-.46.09-.68.09-.46,0-.87-.14-1.21-.39-.71-.53-1.51-.76-2.22-.9.58-.42,1.12-.71,1.68-.91Zm26.58,4.5c-.86.23-1.68.46-2.48.46s-1.52-.23-2.15-.74c.56-.44,1.09-.63,1.75-.63.76,0,1.73.24,3.21.81-.11.03-.21.06-.32.09Zm-7.99-5.49c-.57.42-1.03.75-1.66.75-.09,0-.2-.01-.3-.03-.48-.08-.89-.3-1.28-.53-.28-.15-.56-.31-.87-.43-.05-.01-.05-.03-.05-.04-.01-.03.02-.09.08-.14.04-.04.08-.08.12-.13.06-.08.13-.15.19-.15.04,0,.08.02.13.05.67.45,1.39.67,2.28.67.52,0,1.06-.07,1.53-.16-.06.05-.12.09-.18.13Zm-4.9-.74c-.1.04-.23.05-.36.05-.74,0-1.84-.52-2.44-1.26.54.3,1.1.44,1.69.44.29,0,.58-.04.89-.1.08-.02.17-.03.24-.03.41,0,.54.28.57.4.07.23-.29.4-.6.49Zm-1.57-1.57c-.7,0-1.22-.3-1.73-.99.08-.02.17-.03.24-.03.42,0,.74.26,1.08.53.23.18.46.36.72.48-.11.02-.21.02-.32.02Zm-1.66,2.32c-.68,0-1.4-.24-2.26-.74.83-.18,1.4-.53,1.81-1.08.42.84,1.16,1.19,1.85,1.47-.47.24-.93.36-1.4.36Zm-17.78-1.38c-.33-.42-.66-.81-1.07-1.04.39-.24.7-.35,1.01-.35.42,0,.81.24,1.18.72.48.62,1.25.64,1.99.66.07,0,.14,0,.21,0-.01.01-.02.02-.04.03-.21.15-.44.3-.67.43-.37.22-.74.33-1.12.33-.57,0-1.09-.27-1.49-.78Zm2.48,1.66c-.08-.08-.16-.16-.23-.24.27-.14.54-.29.79-.43.65-.38,1.27-.73,2.02-.8.06,0,.11-.01.17-.01.66,0,1.1.39,1.57.79.24.21.49.42.78.59-.78.28-1.52.65-2.31,1.16-.25.17-.52.25-.79.25-.42,0-.86-.2-1.28-.59-.24-.23-.47-.47-.72-.72Zm18.07,6.74c-.56-.29-1.18-.42-1.92-.53l.39-.2c.44-.22.82-.43,1.2-.61.23-.11.47-.17.7-.17.29,0,.59.09.84.27.68.46,1.41.68,2.22.68.58,0,1.21-.12,1.91-.36.66-.23,1.27-.34,1.84-.34.76,0,1.49.2,2.21.61.45.26.93.38,1.48.38.74,0,1.48-.22,2.2-.44l.34-.1c.5-.15.98-.22,1.47-.22.93,0,1.86.26,2.94.79-.56.07-.96.17-1.34.33-.58.25-1.17.38-1.73.38-.65,0-1.3-.16-1.93-.48-.33-.17-.67-.25-1.06-.25-.52,0-1.03.15-1.53.29-.2.06-.4.11-.6.16-.36.09-.67.13-.96.13-.48,0-.9-.11-1.29-.34-.45-.26-.91-.4-1.37-.4s-.91.13-1.35.38c-.79.44-1.59.67-2.38.67-.74,0-1.52-.21-2.29-.61Zm4.81.66c.42-.24.83-.36,1.23-.36s.8.12,1.19.38c.43.27.9.41,1.43.41s1.08-.15,1.49-.27c.61-.19,1.1-.28,1.57-.28.54,0,1.04.13,1.53.38.41.22.87.33,1.35.33.34,0,.7-.05,1.08-.16-.49.43-1.09.67-1.7.67-.14,0-.27-.02-.4-.04-.07-.01-.16-.03-.23-.06-.13-.04-.25-.09-.38-.15-.64-.34-1.23-.51-1.82-.51-.63,0-1.24.19-1.86.57-.52.32-.98.47-1.43.47-.5,0-.95-.2-1.4-.6-.38-.34-.84-.51-1.34-.67-.11-.04-.22-.07-.32-.11Zm5.14,4.73c.13-.05.26-.1.38-.18.73-.52,1.38-.77,1.97-.77.65,0,1.24.29,1.84.89.14.14.32.24.53.29-.96-.03-4.81-.11-4.81-.11v-.07s.07-.04.1-.05Zm5.93.01c.33-.18.76-.42,1.1-.73.36-.32.73-.48,1.1-.48.33,0,.65.13.97.39.74.6,1.54.91,2.38.91.68,0,1.41-.2,2.15-.61.48-.26.98-.4,1.49-.4.67,0,1.38.22,2.18.68.51.29,1.06.6,1.66.72-4.58-.05-9.16-.15-13.66-.24.21-.03.43-.11.64-.22Zm14.35.31c.66-.31,1.28-.45,1.92-.45.75,0,1.5.21,2.28.65-1.57,0-3.15-.01-4.72-.03.17-.03.34-.09.52-.17Zm5.19-.39s-.1-.01-.14-.01c-.49,0-.96-.21-1.47-.44l.27-.06c.4-.1.77-.19,1.15-.24.09-.01.18-.02.27-.02.3,0,.43.12.44.42.01.13-.02.22-.07.28s-.14.08-.28.08c-.06,0-.13,0-.18,0Zm.33-8.56c-.17,0-.44-.1-.84-.27-.14-.06-.28-.13-.41-.18-.65-.29-1.32-.59-2.08-.59-.06,0-.12,0-.18.01-.77.04-1.29.22-1.81.59-.23.18-.47.26-.72.26-.42,0-.81-.23-1.23-.48-.05-.03-.09-.06-.14-.08.89-.03,1.65-.35,2.27-.66.31-.15.67-.23,1.05-.23.53,0,1.09.15,1.61.43.52.28,1.07.42,1.63.42.32,0,.66-.05.99-.14.05.4.07.77-.03.88-.01.02-.04.04-.11.04Zm-.12-1.52c-.18.04-.36.06-.54.06-.6,0-1.17-.21-1.76-.43-.35-.13-.72-.27-1.1-.36l.69-.52c.24.28.69.7,1.33.89.39.12.77.21,1.19.31.06.02.13.03.2.05Zm-3.56-2.26c-.27,0-.51-.17-.73-.33-.08-.06-.17-.11-.26-.17.17.03.33.08.51.14.28.09.56.19.9.19h.07c-.17.11-.33.17-.48.17Zm-1.08.32c.31.24.62.37.98.41-.49.45-1.03.69-1.54.69-.43,0-.82-.18-1.14-.52.51-.02.93-.21,1.24-.58.07-.08.14-.13.21-.13.07,0,.15.04.24.12Zm-9.88,2.67c-.34,0-.71-.11-1.09-.32-.97-.54-1.96-.85-2.99-.95.44-.22.88-.33,1.32-.33.58,0,1.16.18,1.78.56.6.36,1.26.59,2.01.69-.33.23-.67.35-1.03.35Zm-4.76-1.79c-.13,0-.26,0-.38,0-.13,0-.24,0-.36,0-.38,0-.78-.03-1.16-.21.28-.27.56-.41.84-.41.33,0,.68.19,1.11.61h-.05Zm-6.58,2.38c-.82,0-1.55-.27-2.22-.8,1.25-.36,2.06-.58,2.68-.58.67,0,1.12.26,1.91.85-.68.26-1.54.53-2.36.53Zm-5.63-4.27c-.53,0-1.03-.12-1.45-.34.18-.02.38-.04.56-.1h.03c.59-.22.92-.34,1.21-.34s.6.13,1.15.39c-.4.25-.93.4-1.5.4Zm-8.9-2.12s.09-.05.13-.06c.06-.02.13-.04.18-.05.2-.06.4-.11.58-.11.21,0,.36.08.48.24.08.12.11.21.09.29-.03.13-.21.22-.38.31-.11.06-.21.11-.29.18-.42.41-1.02.63-1.68.63-.92,0-1.75-.43-2.15-1.09.42.14.82.2,1.21.2.63,0,1.23-.18,1.82-.55Zm-6.89-.55c-.53.17-1.02.32-1.5.32-.45,0-.84-.14-1.21-.43.82-.06,1.61-.17,2.39-.55.04-.02.07-.03.1-.03.11,0,.22.13.35.27.08.1.18.21.29.3-.14.04-.28.08-.41.13Zm-9.91-.98c.08-.03.15-.05.23-.08.34-.12.67-.23.99-.36.07-.03.12-.05.16-.05.02,0,.06,0,.11.05.69.52,1.47.59,2.21.59.13,0,.27,0,.41,0-.8.33-1.48.48-2.1.48-.72,0-1.38-.21-2.02-.63Zm-4.19,1.04c-.42.49-.89.77-1.33.77-.38,0-.73-.2-1.03-.59-.08-.1-.14-.18-.13-.22.01-.05.09-.13.26-.22.26-.15.51-.23.76-.23.38,0,.72.16,1.08.32.14.06.27.13.4.18Zm-2.99.53c.55.58,1.13.88,1.72.88s1.22-.31,1.82-.91c.4.38.8.61,1.26.72-.63.62-1.29.91-2.06.91s-1.54-.29-2.34-.59c-.33-.13-.67-.25-1.01-.35l.61-.65Zm5.04,1.34c.17-.13.32-.24.49-.36.21-.15.43-.22.66-.22.34,0,.69.18.98.52.41.46.96,1.03,1.63,1.4-.47.47-.98.7-1.56.7-.68,0-1.37-.31-2.04-.6-.34-.16-.69-.29-1.1-.43-.13-.05-.25-.09-.38-.15.52-.23.93-.54,1.32-.84Zm3.45,2.26c.59-.3.92-.47,1.17-.47.31,0,.55.27,1.09.87.47.52.55.57,1.72,1.03-.21.25-.29.32-.41.32-.09,0-.23-.05-.46-.14-.86-.33-1.71-.66-2.61-1.01l-.96-.38.45-.23Zm5.32,1.83c.64,0,1.2.32,1.73.62.47.27.95.53,1.47.6-.19.21-.4.32-.65.32-.18,0-.39-.05-.64-.17-.68-.3-1.37-.55-2.1-.82-.26-.09-.53-.19-.8-.3.33-.17.66-.26.98-.26Zm4.58,1.31c.34,0,.69.17,1.13.56.21.18.41.38.61.56.18.17.35.33.54.49.04.04.09.06.14.08.04.02.09.05.09.06,0,.01,0,.04-.03.08-.04.08-.1.11-.18.11-.05,0-.09,0-.15-.03-.88-.34-1.74-.69-2.65-1.05l-.7-.28c.47-.42.84-.6,1.2-.6Zm2.79-1.55c.11,0,.23,0,.35.03h.11c.19.03.35.05.48.16.56.46,1.22.95,2.06,1.22-.29.13-.54.32-.77.51-.16.12-.3.23-.46.33-.47.29-.88.43-1.25.43-.47,0-.92-.22-1.4-.7-.37-.37-.75-.74-1.3-.95.74-.71,1.41-1.03,2.18-1.03Zm1.27,3.38c.3,0,.65.11,1.14.37.64.34,1.32.67,2.1.68-.38.32-.77.48-1.18.48h-.1c-.32-.02-.66-.13-1.03-.33-.43-.23-.91-.41-1.36-.58-.16-.06-.32-.11-.48-.18.32-.31.6-.44.92-.44Zm4.52,1.41c.36,0,.73.09,1.1.28,1.05.54,2.06.82,3.14.89-.68.49-1.28.72-1.87.72-.41,0-.81-.11-1.23-.33-.61-.31-1.26-.54-1.93-.78-.24-.09-.5-.18-.75-.27.56-.35,1.06-.51,1.55-.51Zm9.2,2.99c.45-.3.81-.44,1.14-.44.38,0,.75.19,1.19.62.34.33.71.55,1.16.69-.74.53-1.52.79-2.37.79-1.05,0-2.11-.39-3.22-.84.73-.09,1.4-.35,2.1-.82Zm10.96,22.52c-.74.49-1.21.74-1.78.74s-1.28-.26-2.48-.74h4.26Zm45.51,11.88c-.33.08-.65.15-.98.22-.04.01-.09.02-.14.03-.1.03-.21.06-.3.06-.04,0-.07,0-.09-.02l-.03-.02c-.31-.13-.63-.25-.79-.55.06-.02.11-.05.17-.07.19-.08.38-.16.56-.18.24-.03.44-.05.61-.05.54,0,.94.16,1.24.5l-.25.06Zm-3.32-.96c-.49,0-.96-.14-1.91-.42l-.1-.03c-.52-.15-1.04-.23-1.54-.23-.47,0-.94.07-1.39.2.24-.08.47-.21.69-.38.48-.39.96-.58,1.46-.58.33,0,.68.09,1.06.26.57.26,1.09.39,1.59.39.28,0,.56-.04.83-.12.05-.02.1-.03.15-.03.22,0,.4.16.59.33.1.09.21.18.32.25-.85.24-1.32.35-1.76.35Zm-2.19-2.53c-.23.03-.48.07-.72.07-.38,0-.69-.08-.99-.27h.06c.29,0,.56-.06.82-.13.24-.06.46-.11.68-.11.3,0,.55.11.77.36-.2,0-.41.04-.61.07Zm-1.82-.85c-.54,0-1.06-.15-1.61-.3-.47-.13-.95-.26-1.46-.3.58-.18,1.17-.27,1.72-.27.91,0,1.7.25,2.24.71-.28.11-.57.16-.89.16Zm-4.48-1.01l-.17.04c-.14.04-.28.05-.42.05-.49,0-.97-.18-1.48-.38-.08-.03-.16-.06-.24-.09.43-.07.84-.24,1.23-.41.51-.21.98-.42,1.51-.42h.06c.56.02,1.08.2,1.63.39.25.09.51.18.77.25-.99.09-1.95.33-2.88.56Zm-1.11-1.49c-.19.07-.38.14-.56.19-.49.16-.94.29-1.41.29-.26,0-.49-.04-.72-.12-.57-.2-1.13-.38-1.77-.38-.06,0-.13,0-.19,0,.31-.29.63-.42.97-.42.28,0,.57.08.92.26.4.19.83.3,1.26.3.49,0,.95-.14,1.34-.39.27-.18.51-.26.73-.26.18,0,.36.05.57.16-.41.08-.79.22-1.15.36Zm-1.47-.68c-.49,0-1-.14-1.45-.29.41-.1.83-.15,1.28-.15s.88.04,1.38.13c-.39.21-.78.31-1.2.31Zm-5.27-2.11c-.52.35-.9.51-1.24.51-.38,0-.73-.2-1.13-.65h.01c.7,0,1.29-.2,1.88-.66.09-.07.17-.14.26-.14.07,0,.15.04.24.1.26.18.39.31.39.42s-.13.23-.41.43Zm-8.27-28.23s0,.08,0,.12c0,.08-.02.11-.03.13-.02.01-.05.02-.09.02-.04,0-.07,0-.11,0s-.08-.01-.11-.01h-.36c-.81,0-1.65-.04-2.39-.59-.16-.12-.34-.18-.56-.26-.03-.01-.06-.02-.09-.03.35-.11.71-.16,1.08-.16.8,0,1.57.24,2.33.47l.18.05c.18.05.17.12.16.27Zm-.03-1.09c-.02.13-.06.13-.07.13-.04,0-.1-.03-.17-.06-.03-.02-.06-.03-.08-.04-.66-.26-1.35-.41-2.05-.42.26-.03.51-.08.76-.14.19-.05.38-.07.56-.07.29,0,.56.06.83.16.23.09.25.23.21.44Zm-12.15-5.93c-.65,0-1.18-.23-1.6-.7.24-.25.36-.35.48-.35s.27.08.52.22l.04.03c.46.26,1.01.52,1.64.6-.38.13-.74.19-1.08.19Zm-6.06-1.03s.08-.08.13-.13c.17-.18.39-.41.63-.41.09,0,.17.03.27.09.51.33,1.01.59,1.72.81-.43.19-.84.28-1.24.28-.34,0-.69-.06-1.06-.2-.24-.09-.46-.24-.48-.35,0-.02,0-.05.05-.09Zm-.35,2.02c-.51,0-.99-.21-1.34-.6-.13-.13-.14-.2-.14-.21.05-.15.96-.59,1.29-.59h.03c.46.46,1.03.61,1.64.74-.41.42-.94.66-1.47.66Zm-3.63-.35c-.39,0-.79-.15-1.18-.29-.08-.03-.17-.06-.25-.09-.41-.14-.48-.25-.47-.92.92.61,1.92.84,2.81.97-.28.22-.58.33-.91.33Zm-1.19.51c.24,0,.45.07.64.21.71.54,1.55.83,2.64.89-.75.4-1.49.6-2.21.6-.95,0-1.87-.34-2.75-1.03.07-.04.15-.07.22-.12.28-.15.58-.31.89-.43.2-.08.4-.12.59-.12Zm-1.21-.34c-.61.37-1.14.55-1.57.55-.35,0-.64-.11-.9-.35-.17-.16-.31-.3-.38-.51,1.02-.2,1.86-.58,2.64-1.18,0,.05,0,.09,0,.13.01.19.02.33-.02.45-.06.21.11.35.26.47.09.07.19.15.19.21,0,.03-.02.1-.22.22Zm-3.88-2.06c-.86,0-1.61-.2-2.19-.57,2.4-.58,3.52-.85,4.28-.85.59,0,.95.17,1.56.49-1.28.61-2.53.93-3.65.93Zm-5.05-.1h-.08c-.21,0-.43-.04-.66-.11-.26-.08-.41-.19-.45-.33-.06-.18.07-.39.18-.53s.22-.27.34-.36c.27-.23.54-.35.85-.35.44,0,.93.24,1.46.72-.54.63-1.06.94-1.64.96Zm-10.47-1.71c-.11-.06-.22-.11-.34-.15s-.15-.07-.15-.08c0-.01,0-.04.02-.07.11-.17.22-.28.32-.33.02-.01.03-.02.04-.02.02.02.03.06.04.08.02.04.04.08.07.13.13.18.29.35.45.53.03.03.05.06.08.1-.2-.02-.36-.1-.54-.19Zm-9.42,1.23c-.51,0-1.41-.11-1.93-.81.7,0,1.31-.22,1.89-.43.12-.04.23-.08.35-.13.38-.13.69-.19.96-.19.52,0,.91.22,1.21.7-.57.51-1.56.84-2.48.84Zm-.55-2.7c-.52,0-1.02-.15-1.51-.45-.27-.17-.47-.23-.67-.23s-.38.06-.64.21c-.28.16-.63.24-1.02.24-.71,0-1.46-.26-2.01-.7h.21c1.9,0,3.78.2,5.59.39.49.06.99.11,1.48.16-.48.26-.96.39-1.44.39Zm-5.41.23c-.48.42-.9.59-1.42.59-.07,0-.14,0-.21-.01-.17-.01-.35-.05-.55-.09.03-.02.05-.03.07-.04.15-.1.28-.18.4-.25.16-.08.27-.24.38-.38.13-.18.24-.33.42-.33.02,0,.04,0,.06,0,.07.01.15.04.23.08.14.07.28.18.42.28.07.05.14.1.2.15Zm-5.7.55c-.45,0-.84-.19-1.27-.61-.17-.17-.24-.29-.22-.38.01-.08.1-.16.27-.24.13-.06.25-.14.38-.24.22-.18.5-.39.72-.39.08,0,.31,0,.48.64.08.34.35.53.61.71.08.06.17.12.25.18-.48.22-.87.33-1.21.33Zm82.27,50.2c.34-.29.53-.54.72-.82.34-.49.85-.77,1.42-.77.44,0,.88.17,1.23.49.58.53,1.13.79,1.67.79s1.13-.28,1.72-.84c.27-.25.49-.38.68-.38.11,0,.21.05.31.16.49.55,1.05.8,1.76.8.49,0,1.01-.13,1.51-.26l.27-.07c.27-.07.44-.1.57-.1.2,0,.33.09.69.44-4.22.34-8.33.53-12.54.56Zm-2.45-10.11c-.25,0-.4-.13-.81-.47-.13-.12-.26-.2-.37-.24h.13c.54,0,1.13.22,1.63.61-.26.06-.44.1-.58.1Zm-2.48-1.02c-.27.22-.59.33-.94.33-.46,0-.92-.2-1.31-.54.69-.05,1.3-.24,1.85-.59.14-.09.28-.14.42-.14.27,0,.51.16.8.35.07.05.15.1.23.15-.42.04-.73.18-1.05.44Zm-1.11-1.77c.07,0,.23.1.36.19.05.03.09.06.14.09-.52.36-1.05.55-1.56.55-.41,0-.84-.12-1.26-.35.3-.09.61-.12.93-.15.24-.02.49-.05.74-.1.24-.05.45-.12.65-.22Zm-9.73,1.72c-1.02.64-1.99.98-2.78.98-.59,0-1.06-.2-1.37-.6.95-.03,1.66-.55,2.34-1.05l.2-.15c.16-.11.29-.21.41-.21.04,0,.16,0,.3.31.18.4.55.6.89.72Zm-3.2-35.47s.04-.01.05-.02c.14-.04.27-.09.41-.12.45-.1.78-.18.98-.18.15,0,.2.04.22.07.12.13.09.52.05,1.16-.89-.21-1.16-.35-1.72-.91Zm-1.6-.4c-.39,0-.79-.11-1.22-.34-.07-.04-.14-.06-.2-.08.73.07,1.47.16,2.21.27-.27.11-.53.16-.8.16Zm-2.28-.3c-.44.23-.88.34-1.29.34-.53,0-1.04-.18-1.53-.54-.13-.1-.27-.15-.41-.15s-.28.05-.42.1l-.05.02c-.39.14-.78.21-1.16.21-.64,0-1.27-.21-1.89-.62,1.21.1,2.43.17,3.61.24,1.18.06,2.38.13,3.59.23-.15.02-.29.07-.46.16Zm-9.23-.39c-.39,0-.83-.16-1.42-.51h.05c.16,0,.31,0,.46,0s.3,0,.45,0c.46,0,.95.02,1.45.16-.35.24-.66.36-.99.36Zm-14.02-1.72c-.63.26-1.12.38-1.57.38-.54,0-1.02-.18-1.47-.54.18-.03.37-.04.58-.04.38,0,.75.04,1.15.09l.15.02c.35.04.73.08,1.14.09h.03Zm-5.46-.51c-.58.65-1.04.94-1.53.94-.41,0-.86-.2-1.42-.65-.55-.43-1.19-.63-1.96-.63-.46,0-.96.07-1.59.23-.2.05-.4.11-.59.17-.16.05-.32.1-.48.15-.16.04-.3.06-.44.06-.67,0-.95-.52-1.07-.99h.17c1.18,0,2.35.13,3.5.25.32.03.64.07.95.1,1.08.11,2.19.2,3.25.29.41.03.81.06,1.22.09Zm-11.6.02c-.44,0-.86-.28-1.34-.87-.14-.17-.28-.26-.42-.26s-.26.08-.36.17c-.04.03-.08.06-.12.08-.52.32-1.07.48-1.64.48-.35,0-.73-.06-1.1-.19-.47-.16-.7-.43-.77-.89l7.2.57c-.55.61-1.02.9-1.46.9Zm-16.47-.93s-.07,0-.11,0c-.85-.03-1.43-.5-1.69-1.37.06,0,.13,0,.18,0,.45,0,.91.05,1.35.09.45.05.91.09,1.38.09.16,0,.31,0,.46-.02-.31.87-.76,1.21-1.57,1.21Zm-6.44-1.55c.81,0,1.67.01,2.56.05-.48.46-.86.66-1.26.66-.3,0-.64-.12-1.04-.38-.23-.15-.51-.29-.8-.29-.23,0-.46.09-.7.28-.61.47-.98.72-1.29.72-.34,0-.67-.28-1.28-.91-.06-.06-.11-.11-.17-.18.88.05,1.74.06,2.55.06h1.42Zm-2.96,1.71c-.59-.03-1.14-.24-1.71-.48-.38-.15-.78-.31-1.19-.41.43-.45.67-.66.88-.66s.43.19.84.63c.34.35.72.65,1.18.92Zm-2.97-1.88c-.38.41-.57.58-.86.58-.35,0-.86-.24-1.88-.72l-.13-.06c.11,0,.23-.01.35-.01.45,0,.9.05,1.33.1.39.05.79.09,1.19.1ZM8.09,67.76s.06,0,.1,0c.03,0,.05,0,.07,0,.04,0,.05,0,.07.06.01.03-.04.14-.06.16-.02.01-.04.02-.06.02-.04,0-.07-.04-.12-.11-.03-.04-.06-.08-.09-.12.03.01.06.01.09.01Zm49.39,22.58c.19.98.05,1.41-.59,1.73-.24.12-.49.14-.76.16h-.14c-.11.02-.22.03-.32.03-.37,0-.6-.07-.74-.23-.16-.19-.2-.51-.14-1,.08-.62.16-1.03.51-1.03.12,0,.27.04.44.13h.02s.03.01.03.01c.11,0,.22-.01.33-.02.08,0,.15-.01.22-.01.09,0,.16.01.22.04.04.02.08.02.13.02.11,0,.22-.05.33-.1.09-.04.18-.08.26-.08.04,0,.15,0,.22.34Zm96.75-19.52c-.03-1.19-.07-2.42-.33-3.61-.19-.87-.69-1.35-1.41-1.35-.23,0-.49.05-.77.16-.75.29-1.01,1.02-1.14,1.54-.45,1.77-.34,3.57-.25,5.32.06,1.03.12,2.08.07,3.11,0,.16.02.27.08.34.05.05.12.08.2.08.07,0,.14-.02.21-.04,0,0,.02,0,.02,0,0,.06.01.11.03.16.05.16.18.24.39.24.07,0,.16-.01.25-.03.11-.02.23-.04.35-.07.31-.06.64-.13.95-.13.07,0,.14,0,.21.01.08.01.15.01.22.01.85,0,.93-.64.93-1.24v-.67c.02-1.07.03-2.18,0-3.27v-.55Zm-3.27-1.85c0-.69.18-1.34.53-1.93.21-.35.5-.51.95-.51.07,0,.14,0,.21.01.38.03.45.29.54.63l.03.09c.22.76.33,1.4.33,2.02,0,.8,0,1.6,0,2.41,0,1.19,0,2.41.02,3.62,0,.26-.02.45-.11.55-.07.07-.2.1-.4.1h-.29c-.19-.02-.39-.03-.59-.03-.44,0-.77.05-1.08.17-.16-.35-.14-.73-.12-1.13.01-.17.02-.33.02-.49-.05-1.86-.04-3.74-.03-5.5Zm-69.6,6.46c-.04-.77-.62-1.39-1.28-1.39h-.07c-.7.05-1.16.47-1.29,1.23-.14.75-.2,1.52-.18,2.28v.05c.02.97.02,1.18.91,1.18.09,0,.21,0,.33,0,.81-.01,1.22-.02,1.44-.24.21-.22.2-.6.18-1.36v-.44l-.02-.1v-.31c0-.29,0-.6-.01-.91Zm-2.24,2.4c.14-.42.14-.84.13-1.26,0-.29,0-.56.04-.83,0-.05.01-.1.02-.15.05-.42.1-.81.65-.84.03,0,.05,0,.07,0,.58,0,.66.45.76.95.04.24.03.49.02.76,0,.11-.01.24-.01.35l.03.1c0,1.04-.34,1.26-.84,1.26-.19,0-.41-.03-.69-.1-.09-.02-.15-.05-.17-.09-.02-.03-.01-.07,0-.14Zm-18.72-1.47c-.5-1.92-1.17-2.47-3.01-2.47h-.3c-1.45.04-2.77.53-3.91,1.43-1.54,1.22-1.72,2.84-1.51,4.9.15,1.44.6,2.85,1.37,4.17.38.66.74,1.23,1.41,1.51.11.05.41.18.31.5-.06.16-.14.23-.26.23-.08,0-.15-.04-.21-.08-.05-.02-.09-.05-.13-.05-.47-.09-.76-.41-.96-.68-1.72-2.33-2.46-4.97-2.17-7.85.27-2.71,2.33-3.79,4.09-4.43.73-.27,1.51-.3,2.24-.3h.37c1.73.03,2.86,1.06,3.35,3.07.15.6.16,1.2.17,1.97,0,.17.01.36.01.56.36,2.12-1.09,3.64-2.73,5.14-.11.09-.25.23-.42.23-.09,0-.18-.04-.25-.13-.07-.08-.1-.16-.09-.24.01-.13.12-.21.21-.27.04-.03.08-.06.1-.08.18-.21.41-.48.68-.7,1.87-1.51,2.39-3.55,1.64-6.43Zm57.25-22.95c-.09,0-.2.02-.3.05-.03-.03-.06-.07-.08-.11-.04-.09-.05-.2-.06-.32,0-.04,0-.08-.01-.13-.02-.1-.03-.19-.07-.27-.13-.29-.28-.61-.74-.64-.71-.03-1.41-.07-2.11-.11-.34-.02-.68-.04-1.02-.06-.06,0-.12,0-.18,0-.38,0-.77.09-.82.74-.03.44.02,1.05.82,1.15.23.03.53.06.82.06.08,0,.16,0,.24,0h.1c.15,0,.24.02.29.07.04.06.05.17.03.33-.06.34-.01.62.15.82.18.22.49.34.95.35.4.01.8.02,1.2.02.36,0,.71,0,1.07-.02.53-.02.74-.22.82-.39.09-.17.13-.47-.18-.93-.17-.26-.46-.6-.91-.6Zm-2.11,1.22c-.17,0-.28-.03-.35-.09-.06-.07-.09-.19-.09-.35,0-.35.15-.42.37-.42.04,0,.09,0,.13,0,.17.02.34.03.52.03.33,0,.68-.03,1.09-.09,0,.07.02.13.05.17.08.13.22.16.35.18.05.02.11.03.15.05.23.11.32.24.3.42-.01.11-.05.12-.11.12-.04,0-.08,0-.13-.02-.06,0-.1-.02-.15-.02h-.01c-.23.01-.45.01-.68.01h-.76c-.22,0-.44,0-.66,0h-.03Zm-2.47-2.08s1.58,0,1.9,0c.34,0,.69,0,1.05,0,.4,0,.48.22.61.64h0c-.21.03-.43.05-.67.05-.44,0-.89-.05-1.31-.1-.42-.04-.85-.09-1.27-.09-.08,0-.17,0-.25,0h-.04c-.09,0-.16-.02-.2-.06-.04-.04-.06-.13-.06-.25,0-.18.06-.2.24-.2Zm-17.95-11.78s-.08,0-.14.01c-.38.03-.75.03-1.07.03h-.8c-.16,0-.32,0-.48,0h-.08c-.26,0-.35-.03-.35-.35-.01-.64-.04-1.29-.07-1.92-.03-.69-.06-1.39-.07-2.09-.01-1.57-.02-3.13-.02-4.69s0-3.11-.02-4.66c-.02-1.3-.29-2.56-.81-3.73-.54-1.19-1.35-1.84-2.57-2.04-.35-.06-.73-.09-1.1-.09-.51,0-1.03.05-1.61.16-1.98.37-3.51,2.21-3.55,4.28-.05,2.53.07,5.08.19,7.56.11,2.33.22,4.73.19,7.1-.01.64-.16.79-.78.8-.23,0-.46.01-.69.01-.38,0-.74,0-1.12-.01-.37-.01-.74-.02-1.12-.02-.66,0-1.53.02-2.41.15-.04.01-.08.01-.11.01-.16,0-.2-.05-.22-.34-.02-.4-.05-.8-.08-1.19-.04-.52-.08-1.05-.09-1.58-.03-1.26-.05-2.52-.08-3.77-.03-1.48-.06-3.02-.1-4.52-.01-.35-.01-.72-.01-1.07,0-.88-.01-1.78-.15-2.68-.48-3.06-2.04-4.65-4.93-4.99-.14-.02-.28-.02-.42-.02-1.09,0-2.22.48-3.02,1.28-.75.75-1.14,1.71-1.13,2.77.02,2.36,0,4.75,0,7.07,0,1.31-.02,2.63-.02,3.94,0,1.56.02,3.15.03,4.68v.3s0,.06,0,.1c-.01.11-.02.27.07.37.01.01.03.03.04.04-2.41.09-4.87.19-7.3.35-.05,0-.1,0-.15,0-.14,0-.22-.02-.27-.07-.05-.06-.08-.18-.08-.37.03-1.98-.05-3.94-.13-5.59-.06-1.24-.06-2.51-.06-3.73,0-2.18,0-4.43-.32-6.64-.33-2.27-1.44-3.71-3.29-4.28-.83-.26-1.55-.38-2.2-.38-1.3,0-2.28.51-2.99,1.56-1.21,1.78-1.84,3.72-1.86,5.8-.03,2.94-.02,5.94-.02,8.83,0,1.22,0,2.45,0,3.67q0,1.67-1.66,1.74h-.03s-.07,0-.1,0h-.12c-.1,0-.24.01-.32.1-.06.06-.08.14-.08.24.01.17.01.35.01.53,0,.61,0,1.25.35,1.78.22.34.63.38.95.38.13,0,.26,0,.38-.01h.18c.85-.05,1.71-.09,2.56-.13,1.56-.08,3.17-.16,4.74-.2,7.01-.15,14.18-.26,20.35-.35,4.41-.07,8.9-.12,13.24-.17l2.31-.03c.29,0,.59,0,.89,0s1.51,0,1.82,0c.38,0,.76,0,1.14-.01,1.14-.02,1.32-.2,1.32-1.34v-.56c-.01-.42-.01-.85.01-1.27.02-.29-.02-.47-.14-.58-.08-.11-.23-.16-.45-.16Zm-8.47-18.92l.02.1h.04c.11,0,.22,0,.32,0,2.92,0,4.11,1.25,4.27,4.46.06,1.29.13,2.63.15,3.98.02.93.01,1.88.01,2.8,0,.41,0,.81,0,1.22l.02.1v1.47c0,1.37-.01,2.79.01,4.19.01.47-.02.64-.58.66-.47.02-.94.03-1.4.05-1.76.06-3.57.13-5.36.13h-.12c-.48,0-.56-.08-.57-.57-.04-1.53-.09-3.05-.14-4.58-.1-3.33-.2-6.77-.27-10.16-.03-1.82,1.71-3.65,3.58-3.75l.02-.1Zm-2.82,22.27c-1.13,0-2,.01-2.83.02-8.16.15-16.16.28-23.75.38-3.22.05-6.56.09-9.85.45-.11.02-.23.03-.36.03-.33,0-.56-.07-.66-.2-.25-.32-.23-.73-.2-1.17.01-.15.02-.31.02-.45,0-.02,0-.04.02-.05.01,0,.04-.03.13-.03.04,0,.09,0,.13.01.04,0,.08,0,.14,0h.01c1.14-.04,2.29-.07,3.43-.1,2.32-.07,4.72-.14,7.07-.27,3.86-.2,7.79-.34,11.58-.48l1.57-.06c1.06-.04,2.12-.09,3.18-.14,1.67-.07,3.4-.15,5.1-.19,3.56-.08,7.18-.21,10.69-.33,1.53-.05,3.06-.1,4.58-.16h.06c.05,0,.1,0,.16,0h.16c.08,0,.16,0,.24-.02.07-.01.14-.02.2-.02.24,0,.36.09.36.59v.06q.02,1.91-1.85,2.01c-2.08.1-4.14.12-6.05.12-.55,0-2.72-.01-3.27-.01Zm-16.92-2.49c.11-.12.11-.31.11-.44,0-.15,0-.29,0-.43v-7.96h-.14c0-.66,0-1.31,0-1.97,0-1.7-.02-3.46.03-5.19.03-.99.1-1.88.78-2.59.79-.83,1.85-1.29,3.01-1.29,1.7,0,3.24.98,3.92,2.52.68,1.52.68,3.14.68,4.71,0,.49,0,1.01.03,1.51.06,1.31.06,2.65.07,3.94.02,2.15.03,4.35.27,6.53.02.17.01.26-.03.31-.04.04-.13.06-.3.06h-.2c-.71,0-1.43.04-2.13.07-.3.02-.6.03-.9.05-1.41.06-2.82.11-4.24.16-.32.01-.65.03-.98.04.02,0,.02-.01.03-.02Zm-9.14-7.29c.13,2.44.16,4.84.1,7.14,0,.05,0,.11.01.16,0,.13.01.24-.05.31-.05.05-.14.08-.29.08-2.8.09-5.7.21-8.62.35-.03,0-.05,0-.07,0-.16,0-.27-.03-.32-.08-.08-.08-.09-.23-.08-.47.02-1.07.02-2.12.01-3.24v-1.32c.11-1.41.04-2.88-.04-4.3-.07-1.21-.13-2.46-.08-3.69.06-1.55.26-3.57,1.24-5.45.81-1.55,1.71-2.21,3-2.21.53,0,1.17.11,1.99.34,2.14.59,2.79,2.61,2.97,4.21s.17,3.24.17,4.82c-.01,1.1-.02,2.24.04,3.36Zm-12.48,18.18c-.08,0-.17,0-.26.02-.05,0-.1.01-.14.01-.34.02-.69.05-1.03.09-.21.02-.42.04-.63.06-.04,0-.07.01-.1.01-.12,0-.19-.02-.26-.26-.31-1.15-.4-1.34-1.57-1.34-.17,0-.35,0-.59,0-.06,0-.12,0-.18,0-.35,0-1.06.04-1.84.33-.9.33-.74,1.15-.67,1.55.05.28.21.43.48.43.11,0,.23-.02.34-.05.09-.02.18-.04.28-.04h.08c.13,0,.26-.02.39-.03.13-.02.27-.03.4-.03.07,0,.14,0,.21-.01.07-.01.14-.01.2-.01.13,0,.2.02.24.07.06.08.06.23,0,.46-.09.38.31.72.72.83.63.16,1.27.24,1.9.24s1.3-.08,1.93-.26c.8-.22.73-1.02.69-1.55-.04-.54-.45-.54-.58-.54Zm-.93,1.59h-.15c-.28-.02-.58-.03-.93-.03-.39,0-.78.01-1.19.02-.19,0-.36-.07-.54-.14-.05-.02-.09-.04-.14-.06-.11-.04-.11-.1-.09-.28,0-.06.02-.11.02-.16,0-.04,0-.07.02-.08.01-.02.04-.03.15-.03h.27c.44,0,.89-.03,1.33-.06s.9-.07,1.35-.07c.29,0,.56.01.82.04-.04.58-.32.83-.92.83Zm-4.92-1.41c-.11,0-.21,0-.34-.01-.06,0-.12.02-.18.03-.05.02-.1.03-.15.03-.03,0-.07,0-.08-.17v-.05c-.01-.28,0-.45.21-.51.89-.25,1.57-.36,2.22-.36.24,0,.48.02.71.05.35.05.36.28.34.64v.17c0,.09-.02.16-.05.18,0,.01-.03.03-.09.03-.05,0-.09-.01-.15-.02-.05-.01-.1-.02-.18-.02h-.02c-.1.01-.21.01-.32.02-.07,0-.15,0-.22,0-.13,0-.25,0-.38,0-.13,0-.25,0-.38,0s-.25,0-.38,0-.25,0-.38,0c-.08,0-.16-.01-.23-.01Zm91.7,3.09c-.13-.01-.26-.03-.39-.05-.2-.03-.42-.06-.67-.06h-.06c-.07-.03-.15-.04-.23-.04-.18,0-.35.05-.54.09-.18.05-.38.09-.59.09h-.04c-.27,0-.46.07-.59.21-.13.14-.18.32-.16.56.02.17,0,.28-.05.33-.06.06-.18.07-.35.07h-.14c-.32,0-.73.03-.98.3-.17.17-.24.43-.22.76.05,1.13.23,1.31,1.3,1.31h0c.38,0,.76,0,1.14,0h.61c.66,0,1-.29,1.04-.85.04-.41.18-.57.51-.57.06,0,.13,0,.2.02.14.03.26.03.36.03.51,0,.78-.27.79-.81v-.14c.01-.56.03-1.2-.94-1.25Zm-4.06,2.99c-.22,0-.24-.14-.25-.47,0-.08,0-.16-.01-.23-.02-.16,0-.27.04-.34.05-.09.14-.13.33-.13h.15c.05,0,.1,0,.16,0,.04,0,.07,0,.1,0h.08c.24,0,.47.05.71.1s.49.1.76.11c.08,0,.16,0,.23-.02h.06c.05-.02.13-.04.19-.04.08,0,.09.02.09.02,0,0,.02.03-.03.13-.04.1-.04.22-.03.33,0,.13.01.25-.05.32-.04.05-.13.07-.24.07h-.14c-.75,0-1.39.03-2.03.13-.04.01-.08.02-.11.02Zm2.04-1.55h-.04c-.4-.03-.64-.07-.64-.39,0-.32.2-.45.66-.45h.21c.18.02.35.02.53.02.25,0,.45-.01.65-.04.09-.01.17-.01.24-.01.27,0,.45.06.54.19.11.16.12.43.02.8-.37-.1-.73-.11-1.05-.11-.11,0-.23,0-.34,0-.11,0-.23,0-.34,0-.14,0-.28,0-.43-.02Zm-18.86,1.05h-.96c-.06.01-.13,0-.19,0h-.29c-.13,0-.26,0-.39.01-.22.02-.49.11-.6.28-.05.08-.07.17-.04.26.04.14.05.29.06.46.02.38.05.8.53.98.6.22,1.11.32,1.59.32.2,0,.39-.02.57-.05.14-.03.2-.29.2-.39-.02-.34.06-.66.14-1l.02-.08c.06-.24.03-.44-.08-.58-.08-.09-.23-.21-.56-.21Zm-1.73,1.26c-.06-.1-.08-.21-.04-.32.1-.34.33-.36.68-.36.13,0,.27,0,.4-.04.05.01.1.02.17.02.06,0,.11-.01.17-.01.05,0,.09-.01.13-.01.1,0,.13.02.15.11.05.23.02.48-.02.73-.01.08-.02.17-.03.25-.11-.02-.22-.03-.33-.04-.32-.04-.65-.07-.96-.13-.14-.02-.24-.09-.31-.21ZM35.2,16.86c-.11-.01-.23-.02-.35-.02h-.1c-.58,0-.94-.05-.98-.8-.01-.26-.41-.39-.65-.41-.31-.03-.61-.05-.93-.06l-.41-.03c-.71,0-1.4.14-2.06.28-.46.09-.96.56-1.14.93-.08.18-.09.34-.03.46.19.35.48.52.86.52.19,0,.39-.04.62-.12.06-.02.13-.02.23-.02.11,0,.22-.02.34-.03.12-.01.23-.02.34-.02.35,0,.61.11.69.67.04.29.36.49.64.57.34.11.69.16,1.08.16.59,0,1.18-.13,1.76-.24l.28-.06c.45-.09.9-.53.82-1.07-.06-.41-.44-.68-1.02-.73Zm-.47.55c.27,0,.71.04.73.33.03.34-.33.41-.77.46h-.07c-.3.05-.64.06-1.02.06-.29,0-.58,0-.86-.02-.35-.02-.56-.22-.67-.65.24-.02.47-.04.7-.06.63-.05,1.22-.1,1.82-.13h.14Zm-5.01-.39s-.05,0-.07,0c-.05,0-.09,0-.15.02-.04,0-.08.01-.12.01-.06,0-.09-.01-.1-.08-.03-.12.05-.18.31-.28.77-.32,1.61-.48,2.52-.48.21,0,.44,0,.66.03.15.01.36.04.46.17.06.07.07.16.06.28-.03.17-.09.2-.21.2-.05,0-.09,0-.14-.01s-.1-.01-.15-.01h-.04c-.65.04-1.3.07-1.95.1l-.74.04-.09.04h-.02s-.07,0-.1,0c-.04,0-.08,0-.11,0Z"/>
    </g>
  </g>
</svg>