<?xml version="1.0" encoding="UTF-8"?>
<svg id="Layer_2" data-name="Layer 2" xmlns="http://www.w3.org/2000/svg" xmlns:xlink="http://www.w3.org/1999/xlink" viewBox="0 0 68.62 92.83">
  <defs>
    <style>
      .cls-1 {
        clip-path: url(#clippath);
      }

      .cls-2 {
        fill: none;
      }

      .cls-2, .cls-3 {
        stroke-width: 0px;
      }

      .cls-4 {
        clip-path: url(#clippath-1);
      }

      .cls-5 {
        clip-path: url(#clippath-3);
      }

      .cls-6 {
        clip-path: url(#clippath-2);
      }

      .cls-3 {
        fill: rgba(49, 73, 173, .99);
      }
    </style>
    <clipPath id="clippath">
      <rect class="cls-2" x="8.7" y="25.32" width="29.33" height="67.52"/>
    </clipPath>
    <clipPath id="clippath-1">
      <rect class="cls-2" x="20.7" width="4" height="17.32"/>
    </clipPath>
    <clipPath id="clippath-2">
      <rect class="cls-2" y="57.32" width="11.36" height="32"/>
    </clipPath>
    <clipPath id="clippath-3">
      <rect class="cls-2" x="14.03" y="47.98" width="16" height="44.85"/>
    </clipPath>
  </defs>
  <g id="Layer_1-2" data-name="Layer 1">
    <g>
      <path class="cls-3" d="m21.92,15.13c-.09,0-.17,0-.24.02h-.03c-.74.03-1.52.43-2.34,1.22l-.02.02c-4.29,4.67-8.43,8.84-12.42,12.5-.18.16-.19.44-.03.63.09.09.21.15.33.15.11,0,.21-.04.3-.12,4.01-3.67,8.16-7.85,12.45-12.54.68-.65,1.28-.97,1.81-.97h.09c.06-.03.13-.03.21-.03,1.8,0,7.01,3.98,15.63,11.96.08.08.19.12.3.12.12,0,.23-.05.32-.15.17-.18.16-.46-.03-.63-8.78-8.13-14.22-12.19-16.34-12.19Z"/>
      <g class="cls-1">
        <path class="cls-3" d="m10.36,61.41c-.06.11-.18.17-.34.17h-.04.01c.11,0,.22-.04.3-.12.02-.02.04-.03.05-.05h.02Zm.14-35.7s-.08,0-.13.02c-.23.07-.37.32-.3.55.14.48.2,1.3.19,2.45-.65,11.8-.9,22.6-.72,32.41h-.01s0,.02,0,.03c-.08.92.26,9.65,1.01,26.19-.14,3.54.61,5.34,2.23,5.41h.08c.28,0,.57-.05.89-.16h-.02c1.95-.13,5.29-.2,10.03-.2,2.77,0,6.02.02,9.74.07.05,0,.1,0,.15,0,.91,0,1.52-.37,1.84-1.11h-.02s.08-.1.11-.17c.24-.52.48-3.18.72-7.97.16-2.51.57-13.55,1.24-33.1.4-12.02.49-19.95.3-23.79-.01-.24-.21-.42-.44-.42h-.02c-.24.02-.43.22-.42.46.2,3.82.1,11.73-.3,23.72-.67,19.55-1.08,30.58-1.23,33.08h0c-.23,4.69-.45,7.24-.64,7.65h-.01s-.04.07-.05.1c-.16.44-.52.66-1.08.66-.04,0-.07,0-.1,0h-.02c-3.72-.05-6.97-.07-9.74-.07-4.79,0-8.16.07-10.13.2l-.12.03c-.24.08-.46.13-.65.13h-.05c-1.04-.04-1.49-1.55-1.38-4.53v-.04c-.73-15.98-1.07-24.64-1.02-25.96h-.04c.04-.07.06-.15.06-.23-.18-9.79.07-20.58.72-32.36h0s0-.03,0-.03c.02-1.24-.06-2.14-.23-2.71-.06-.19-.23-.32-.43-.32Z"/>
      </g>
      <g class="cls-4">
        <path class="cls-3" d="m23.27-.01c-.23,0-.43.19-.44.42-.15,3.62-.33,6.71-.55,9.28-.28,3.13-.49,5.06-.67,5.81-.05.23.09.47.33.53.03,0,.07.01.1.01.2,0,.39-.14.43-.34.18-.79.41-2.77.69-5.93.22-2.58.41-5.68.56-9.32.01-.24-.18-.45-.42-.46h-.02Z"/>
      </g>
      <path class="cls-3" d="m17.39,5.57c-.23,0-.43.18-.44.42-.02.24.17.45.42.46.1,0,.23.01.38.01.76.01,1.37.02,1.85.04.6.03,1.06.05,1.36.07h0c.23.02.53.05.89.08l3.86.42h.02c.67.07,1.32.13,1.96.17h.03c.23,0,.43-.18.44-.41.02-.24-.17-.46-.41-.47-.63-.05-1.28-.1-1.94-.17h0l-3.86-.42c-.36-.04-.67-.07-.92-.08-.31-.03-.78-.05-1.4-.08h0c-.49-.02-1.1-.03-1.86-.04h0c-.14,0-.26,0-.35-.01h-.02Z"/>
      <path class="cls-3" d="m9.94,51.95c-.07,0-.15.02-.22.06-.16.09-.48.34-.95.75l-.02.02c-1.16,1.09-2.03,1.86-2.61,2.32l-.03.03h0c-.17.16-1.75,1.36-4.74,3.61-.2.15-.24.42-.09.62.08.11.22.18.35.18.09,0,.18-.03.27-.09,2.92-2.19,4.52-3.41,4.8-3.65h0c.6-.47,1.49-1.27,2.66-2.36.43-.37.7-.59.81-.65.21-.12.29-.39.17-.6-.08-.14-.23-.22-.39-.22Z"/>
      <g class="cls-6">
        <path class="cls-3" d="m2.85,58.1h-.01c-.24,0-.44.21-.43.45.02.7-.07,2.22-.27,4.59l-1.86,18.7H.28s0,.02,0,.02c-.17,1.84-.16,3.07.01,3.69h-.01c.22,1.95,3.42,2.93,9.6,2.93h.08c.24,0,.44-.2.44-.44s-.2-.44-.44-.44h-.09c-5.71,0-8.61-.73-8.71-2.19v-.09c-.16-.52-.15-1.65.01-3.38l1.86-18.72h0c.2-2.4.29-3.96.27-4.69,0-.24-.2-.43-.44-.43Z"/>
      </g>
      <g class="cls-5">
        <path class="cls-3" d="m24.91,47.99c-.67,0-1.45.03-2.32.08h-.02c-4.03.1-6.03,1.34-5.99,3.7h0c-.27,1.84-.77,9.53-1.49,23.07v.04h0c-.14,1.5-.23,7.19-.29,17.08,0,.24.2.44.44.44h0c.24,0,.44-.19.44-.44.05-9.91.15-15.58.29-17.02v-.02s0-.04,0-.04h0c.73-13.71,1.23-21.4,1.49-23.06v-.07c-.02-1.79,1.69-2.72,5.16-2.8h.02c1.04-.06,1.91-.09,2.61-.09,1.24,0,1.97.1,2.17.29h0l.13.13c.66.4,1.1,1.63,1.31,3.69.17,1.69.17,4.04,0,7.05l-2.14,31.15c-.02.24.17.46.41.47h.03c.23,0,.43-.18.44-.41l2.14-31.15h0c.17-3.07.17-5.47,0-7.2-.23-2.24-.77-3.67-1.61-4.27h-.02s-.06-.07-.09-.1c-.36-.34-1.41-.51-3.12-.51Z"/>
      </g>
      <path class="cls-3" d="m20.79,69.14s-.05,0-.07,0c-1.32.2-2.4.33-3.24.39h0c-.19.01-.36.02-.53.02-.34,0-.65-.03-.92-.09-.03,0-.06-.01-.1-.01-.2,0-.39.14-.43.35-.06.23.09.47.33.53.33.08.7.11,1.11.11.19,0,.38-.01.58-.03.87-.05,1.97-.18,3.32-.39.24-.04.41-.27.37-.51-.04-.22-.22-.38-.44-.38Z"/>
      <path class="cls-3" d="m37.19,42.19c-.24,0-.44.2-.44.44,0,.24.19.44.44.44,4.56.03,7.3.38,8.22,1.02l.02.02c6.58,4.1,13,8.65,19.26,13.65h0c1.62,1.25,2.56,2.3,2.81,3.16.03.08.07.16.14.21h-.02c.14.52.16,2.45.07,5.81h0c-.16,11.43-.57,18.4-1.24,20.93-.1.4-.2.66-.29.77h-.02c-.08,0-.17.03-.23.08-1.01.73-6.93,1.1-17.75,1.1-3.48,0-7.46-.04-11.95-.11h0c-.24,0-.44.19-.44.44,0,.24.19.44.43.45,4.2.07,7.96.11,11.29.11,11.03,0,17.3-.39,18.79-1.17h-.02c.16,0,.3-.06.44-.18.24-.2.45-.63.62-1.26.69-2.6,1.11-9.64,1.27-21.13.1-3.68.05-5.77-.16-6.26-.02-.04-.03-.07-.05-.09h-.02c-.33-1.03-1.36-2.21-3.1-3.54-6.27-5.02-12.71-9.59-19.32-13.7-1.07-.76-3.98-1.15-8.72-1.18Z"/>
      <path class="cls-3" d="m37.61,47.14c-.13,0-.26.06-.34.16-.16.19-.13.47.06.63,3.88,3.14,8.16,7.08,12.86,11.82l.02.02c1.02.91,1.73,1.44,2.15,1.57h-.01c.53.26,1.53.39,2.97.39.34,0,.72-.01,1.12-.03h.01l11.41-.75c.24-.02.43-.22.41-.47-.02-.23-.21-.42-.44-.42h-.03l-11.41.75h0c-.42.02-.8.03-1.15.03-1.3,0-2.15-.1-2.53-.32l-.07-.03c-.3-.09-.9-.55-1.81-1.37h0c-4.72-4.77-9.03-8.72-12.93-11.89-.08-.07-.18-.1-.28-.1Z"/>
      <path class="cls-3" d="m54.43,61.36h-.01c-.24,0-.44.21-.43.45l.05,1.94c.02,1.6.02,2.56.01,2.89h0c0,1.09-.06,2.86-.17,5.33-.15,3.16-.23,4.82-.25,4.97v.03c-.17,2.6-.35,5.31-.57,8.12h0s0,.05,0,.05c-.08,1.3-.15,2.43-.2,3.4-.02.24.17.45.42.47h.03c.23,0,.43-.18.44-.42.05-.98.12-2.11.2-3.4v-.04c.22-2.82.41-5.53.57-8.12.02-.17.1-1.84.26-5.02h0c.1-2.48.16-4.26.17-5.35,0-.34,0-1.31,0-2.92h0s-.05-1.94-.05-1.94c0-.24-.2-.43-.44-.43Z"/>
      <path class="cls-3" d="m59.31,64.43c-.22,0-.41.17-.44.39-.04.3-.07.8-.09,1.49h0c-.02.55-.02.88-.02.98l-.03,2.35c-.02,1.43-.02,2.49-.02,3.19,0,.77.02,1.63.04,2.59,0,.24.2.43.44.43h.01c.24,0,.44-.21.43-.45-.03-.95-.04-1.81-.04-2.57,0-.68,0-1.74.02-3.17l.03-2.35h0c0-.1.01-.43.02-.97.02-.67.04-1.13.08-1.4.04-.24-.14-.46-.38-.5-.02,0-.04,0-.06,0Z"/>
      <path class="cls-3" d="m63.58,66.25c-.22,0-.41.17-.44.39-.19,1.66-.4,3.26-.63,4.8-.21,1.43-.41,2.69-.6,3.79-.04.24.12.47.36.51.03,0,.05,0,.08,0,.21,0,.4-.15.44-.36.19-1.11.39-2.38.6-3.81.22-1.55.44-3.16.63-4.83.03-.24-.15-.46-.39-.49-.02,0-.04,0-.05,0Z"/>
      <path class="cls-3" d="m44,64.57c.22,0,.44.05.67.14h-.02c.83.68,1.38,1.88,1.66,3.61.43,3.17.42,5.3-.03,6.41l-.02.05c-.07.28-.55.43-1.42.46h-.03c-.71.07-1.41.1-2.08.1-1.06,0-2.08-.09-3.04-.26-.03,0-.05-.01-.08-.01-.02,0-.03,0-.04,0,.36-3.99.96-6.74,1.8-8.24.85-1.51,1.72-2.27,2.63-2.27Zm-.05-.9c-1.21,0-2.33.91-3.35,2.73h0c-.91,1.64-1.55,4.56-1.92,8.78-.03.24.16.46.4.48h.11c.05.15.18.27.34.3,1.02.19,2.09.28,3.2.28.7,0,1.41-.04,2.15-.1h0c1.28-.05,2.02-.41,2.23-1.07h0c.51-1.25.54-3.52.09-6.82h0v-.07c-.33-2.01-1.02-3.41-2.07-4.22l-.1-.06c-.36-.15-.71-.22-1.06-.22Z"/>
    </g>
  </g>
</svg>